<svg width="126" height="84" viewBox="0 0 126 84" fill="none" xmlns="http://www.w3.org/2000/svg">
<rect width="126" height="84" fill="#2D2926"/>
<path d="M70.8433 66.1148C100.753 56.4715 121.488 37.7625 117.157 24.327C112.825 10.8916 85.0664 7.81747 55.1566 17.4608C25.2467 27.1041 4.51159 45.8132 8.84335 59.2486C13.1751 72.684 40.9334 75.7581 70.8433 66.1148Z" stroke="#E7DBD0" stroke-width="1.87003" stroke-miterlimit="10"/>
<path d="M20.084 64.1888C20.0838 65.1658 19.3315 65.9781 18.3574 66.0531L16.9424 66.1615H16.9404C15.3886 66.2803 14.1585 67.5144 14.042 69.059C14.0416 69.0645 14.0405 69.07 14.04 69.0756L13.9326 70.4779C13.8576 71.452 13.0453 72.2043 12.0684 72.2045H10.5147C9.53756 72.2045 8.72444 71.4521 8.64942 70.4779L8.54103 69.0629V69.0619L8.50587 68.7748C8.2671 67.3601 7.09188 66.2717 5.64356 66.1625C5.63801 66.1621 5.63251 66.161 5.62696 66.1605L4.22462 66.0531C3.25052 65.9781 2.49823 65.1658 2.49806 64.1888V62.6351C2.49806 61.658 3.25041 60.8449 4.22462 60.7699L5.63966 60.6615L5.64259 60.6605C7.19405 60.5413 8.42359 59.3083 8.54005 57.764C8.54047 57.7585 8.54056 57.753 8.54103 57.7474L8.64942 56.3451C8.72444 55.3709 9.53756 54.6185 10.5147 54.6185H12.0684L12.249 54.6273C13.1437 54.7135 13.8623 55.4317 13.9326 56.3451L14.041 57.7601V57.7621H14.042C14.1588 59.2881 15.3533 60.5031 16.8613 60.6537L16.96 60.6625H16.9668L18.3574 60.7699C19.3316 60.8449 20.084 61.658 20.084 62.6351V64.1888Z" fill="#E7DBD0" stroke="#2D2926" stroke-width="3.74005" stroke-miterlimit="10" stroke-linejoin="round"/>
<path d="M55.1566 66.1148C25.2467 56.4715 4.51159 37.7625 8.84335 24.327C13.1751 10.8916 40.9334 7.81747 70.8433 17.4608C100.753 27.1041 121.488 45.8132 117.157 59.2486C112.825 72.684 85.0665 75.7581 55.1566 66.1148Z" stroke="#E7DBD0" stroke-width="1.87003" stroke-miterlimit="10"/>
<path d="M118.105 16.1166C118.104 17.0936 117.352 17.9059 116.378 17.9809L114.963 18.0893H114.961C113.409 18.2081 112.179 19.4422 112.063 20.9867C112.062 20.9923 112.061 20.9978 112.061 21.0033L111.953 22.4057C111.878 23.3798 111.066 24.1321 110.089 24.1322H108.535C107.558 24.1322 106.745 23.3799 106.67 22.4057L106.562 20.9906V20.9897L106.526 20.7025C106.288 19.2879 105.112 18.1995 103.664 18.0902C103.659 18.0898 103.653 18.0888 103.648 18.0883L102.245 17.9809C101.271 17.9059 100.519 17.0936 100.519 16.1166V14.5629C100.519 13.5858 101.271 12.7727 102.245 12.6977L103.66 12.5893L103.663 12.5883C105.215 12.4691 106.444 11.2361 106.561 9.6918C106.561 9.68628 106.561 9.68072 106.562 9.6752L106.67 8.27286C106.745 7.29864 107.558 6.54629 108.535 6.54629H110.089L110.27 6.55508C111.164 6.64123 111.883 7.35948 111.953 8.27286L112.062 9.68789V9.68985H112.063C112.179 11.2159 113.374 12.4309 114.882 12.5814L114.981 12.5902H114.987L116.378 12.6977C117.352 12.7727 118.105 13.5858 118.105 14.5629V16.1166Z" fill="#E7DBD0" stroke="#2D2926" stroke-width="3.74005" stroke-miterlimit="10" stroke-linejoin="round"/>
<path fill-rule="evenodd" clip-rule="evenodd" d="M61.9766 33.166C64.3158 33.166 66.2031 34.1833 67.2812 35.8936L67.5801 33.5869H70.6953V48.8994C70.6953 53.2153 67.849 56.0039 62.8721 56.0039C58.4375 56.0039 55.7104 53.9047 55.3799 50.5771H58.7676C58.9762 52.1046 60.4756 53.2764 62.8438 53.2764C65.7217 53.2762 67.1884 51.5691 67.1885 49.2012V46.7715C66.0493 48.3599 64.2808 49.2588 61.9736 49.2588C57.8086 49.2588 54.8692 45.9921 54.8691 41.2881C54.8691 36.584 57.8116 33.1662 61.9766 33.166ZM62.7539 36.0732C60.174 36.0732 58.4376 38.172 58.4375 41.2588C58.4375 44.3457 60.2061 46.3545 62.7539 46.3545C65.3015 46.3542 67.1299 44.2558 67.1299 41.2012V41.1982C67.1299 38.1725 65.3336 36.0735 62.7539 36.0732Z" fill="#E7DBD0"/>
<path fill-rule="evenodd" clip-rule="evenodd" d="M45.791 33.166C50.6171 33.166 53.4635 36.6129 53.3447 42.1289H41.418C41.5978 45.0648 43.3369 47.0732 46.1221 47.0732C48.1916 47.0732 49.5069 46.114 50.0781 44.375H53.2842C52.5365 47.7025 49.719 49.8584 46.0898 49.8584C41.1772 49.8584 38.0001 46.4736 38 41.5898C38 36.2825 41.5074 33.1662 45.791 33.166ZM45.8232 35.9229C43.6959 35.923 42.079 37.3606 41.5977 39.6709H49.8984C49.4492 37.2739 48.0694 35.9229 45.8232 35.9229Z" fill="#E7DBD0"/>
<path d="M81.127 33.166C85.1733 33.166 88.081 35.6534 88.5303 39.4912H85.084C84.6957 37.3349 83.2544 36.0732 81.127 36.0732C78.3998 36.0735 76.6027 38.201 76.6025 41.4062C76.6025 44.6117 78.3997 46.9509 81.127 46.9512C83.2544 46.9512 84.7246 45.6937 85.084 43.5342H88.5303C87.9623 47.4297 85.1444 49.8584 81.127 49.8584C76.3332 49.8582 73.0664 46.4119 73.0664 41.4062C73.0666 36.5227 76.3333 33.1662 81.127 33.166Z" fill="#E7DBD0"/>
</svg>
