<svg width="563" height="514" viewBox="0 0 563 514" fill="none" xmlns="http://www.w3.org/2000/svg">
<g clip-path="url(#clip0_54_333)">
<path d="M112.521 316.084C112.521 300.926 124.681 288.606 139.746 288.606C146.216 288.606 153.139 290.796 157.736 294.5V307.878H157.477C157.477 295.428 151.007 289.008 139.753 289.008C126.173 289.008 115.566 299.596 115.632 313.11C115.566 329.66 127.213 342.635 142.085 342.635C144.639 342.676 147.179 342.251 149.587 341.38C153.339 339.79 154.758 336.748 154.758 332.77V324.959C154.758 321.453 151.853 320.184 144.93 320.184V320.055H163.167V320.184C159.349 320.184 157.736 322.367 157.736 328.261V336.741C153.821 340.268 148.999 342.569 143.843 343.372C138.687 344.174 133.415 343.444 128.653 341.267C123.891 339.091 119.84 335.56 116.981 331.094C114.122 326.629 112.576 321.416 112.527 316.077L112.521 316.084Z" fill="#E7DBD0"/>
<path d="M139.745 344.722C132.294 344.747 125.136 341.745 119.845 336.373C114.553 331.001 111.559 323.699 111.521 316.07C111.521 300.38 124.18 287.568 139.745 287.568C146.549 287.568 153.678 289.915 158.349 293.708L158.729 294.015V308.914H156.47V307.891C156.47 296.212 150.686 290.045 139.745 290.045C136.651 290.006 133.579 290.598 130.71 291.787C127.841 292.976 125.232 294.737 123.034 296.969C120.969 299.09 119.337 301.611 118.233 304.384C117.129 307.158 116.576 310.128 116.604 313.123C116.571 321.309 119.45 328.813 124.7 334.196C126.964 336.547 129.661 338.415 132.634 339.691C135.608 340.968 138.8 341.627 142.024 341.632C144.486 341.674 146.935 341.26 149.254 340.411C152.325 339.108 153.771 336.679 153.771 332.763V324.959C153.771 323.063 153.105 321.214 144.943 321.214H143.923V319.038H164.159V321.214H163.16C160.354 321.214 158.729 322.367 158.729 328.268V337.204L158.396 337.511C153.254 342.177 146.616 344.744 139.745 344.722V344.722ZM115.758 305.38C114.277 308.745 113.511 312.393 113.513 316.084C113.54 321.581 115.228 326.935 118.344 331.412C121.459 335.889 125.851 339.271 130.917 341.093C128.089 339.742 125.514 337.895 123.308 335.635C117.677 329.844 114.592 321.848 114.646 313.123C114.621 310.498 114.999 307.886 115.765 305.38H115.758ZM154.051 321.071C154.614 321.532 155.061 322.124 155.356 322.798C155.65 323.472 155.783 324.208 155.744 324.945V332.77C155.786 334.522 155.444 336.26 154.744 337.859C155.424 337.368 156.09 336.843 156.743 336.283V328.268C156.743 325.573 157.016 322.81 158.455 321.084L154.051 321.071ZM153.465 292.93C154.853 294.379 155.959 296.086 156.723 297.958V294.991C155.698 294.216 154.61 293.531 153.471 292.944L153.465 292.93Z" fill="#E7DBD0"/>
<path d="M166.618 342.505C170.429 342.505 172.049 340.322 172.049 334.428V297.876C172.049 291.982 170.429 289.799 166.618 289.799V289.67H180.457V289.799C176.639 289.799 175.02 291.982 175.02 297.876V334.428C175.02 340.322 176.639 342.505 180.457 342.505V342.635H166.618V342.505Z" fill="#E7DBD0"/>
<path d="M181.456 343.658H165.618V341.482H166.618C169.423 341.482 171.048 340.329 171.048 334.428V297.877C171.048 291.976 169.423 290.823 166.618 290.823H165.618V288.647H181.456V290.823H180.457C177.645 290.823 176.019 291.976 176.019 297.877V334.428C176.019 340.329 177.645 341.482 180.457 341.482H181.456V343.658ZM171.335 341.612H175.739C174.3 339.858 174.02 337.123 174.02 334.428V297.877C174.02 295.182 174.3 292.419 175.739 290.693H171.335C172.774 292.446 173.047 295.182 173.047 297.877V334.428C173.047 337.123 172.774 339.858 171.335 341.612Z" fill="#E7DBD0"/>
<path d="M186.394 342.505C190.212 342.505 191.831 340.322 191.831 334.428V297.876C191.831 291.982 190.212 289.799 186.394 289.799V289.67H200.24V289.799C196.422 289.799 194.802 291.982 194.802 297.876V334.428C194.802 339.524 195.968 341.843 198.747 342.375H210.194C215.951 342.375 218.09 338.071 218.09 327.94H218.217V342.635H186.394V342.505Z" fill="#E7DBD0"/>
<path d="M219.217 343.658H185.396V341.482H186.395C189.207 341.482 190.833 340.329 190.833 334.428V297.877C190.833 291.976 189.207 290.823 186.395 290.823H185.396V288.647H201.227V290.823H200.228C197.416 290.823 195.79 291.976 195.79 297.877V334.428C195.79 339.613 197.003 340.97 198.835 341.352H210.162C215.906 341.352 217.059 336.216 217.059 327.941V326.917H219.217V343.658ZM215.519 341.612H217.219V339.415C216.789 340.248 216.213 340.992 215.519 341.612ZM191.119 341.612H195.49C194.058 339.845 193.804 337.096 193.804 334.428V297.877C193.804 295.182 194.084 292.419 195.517 290.693H191.119C192.558 292.446 192.832 295.182 192.832 297.877V334.428C192.832 337.123 192.565 339.858 191.119 341.612Z" fill="#E7DBD0"/>
<path d="M223.061 315.689H240.458V316.084H223.061V315.689Z" fill="#E7DBD0"/>
<path d="M241.458 314.665H222.061V317.107H241.458V314.665Z" fill="#E7DBD0"/>
<path d="M249.467 316.084C249.467 300.926 261.627 288.606 276.692 288.606C283.162 288.606 290.079 290.796 294.683 294.5V307.878H294.423C294.423 295.428 287.953 289.008 276.699 289.008C263.12 289.008 252.512 299.596 252.579 313.11C252.512 329.66 264.152 342.635 279.031 342.635C285.241 342.635 290.085 340.452 294.683 336.413V336.748C290.768 340.275 285.945 342.576 280.79 343.379C275.634 344.181 270.361 343.451 265.599 341.274C260.837 339.098 256.786 335.567 253.927 331.101C251.069 326.635 249.523 321.423 249.474 316.084H249.467ZM275.786 333.303C278.505 333.303 279.604 331.12 279.604 325.225V308.737C279.604 302.843 278.505 300.66 275.786 300.66V300.524H286.394V300.66C283.729 300.66 282.583 302.843 282.583 308.737V316.534C282.583 318.656 283.809 319.516 286.914 319.516H302.952C306.057 319.516 307.283 318.656 307.283 316.534V297.877C307.283 291.983 305.67 289.8 301.852 289.8V289.67H315.692V289.8C311.874 289.8 310.261 291.983 310.261 297.877V334.428C310.261 340.322 311.874 342.505 315.692 342.505V342.635H301.839V342.505C305.657 342.505 307.269 340.322 307.269 334.428V322.776C307.269 320.655 306.043 319.795 302.938 319.795H286.914C283.809 319.795 282.583 320.655 282.583 322.776V325.225C282.583 331.12 283.742 333.303 286.394 333.303V333.432H275.786V333.303Z" fill="#E7DBD0"/>
<path d="M276.692 344.722C269.24 344.747 262.083 341.745 256.791 336.373C251.499 331.001 248.506 323.699 248.467 316.07C248.467 300.38 261.127 287.568 276.692 287.568C283.495 287.568 290.624 289.915 295.295 293.708L295.675 294.015V308.914H293.416V307.891C293.416 296.212 287.633 290.045 276.692 290.045C273.597 290.006 270.525 290.598 267.656 291.787C264.787 292.976 262.178 294.737 259.981 296.969C257.919 299.092 256.291 301.613 255.19 304.387C254.09 307.16 253.539 310.13 253.571 313.123C253.537 321.309 256.416 328.813 261.666 334.196C263.933 336.552 266.635 338.423 269.615 339.699C272.595 340.976 275.794 341.633 279.024 341.632C284.694 341.632 289.325 339.79 294.023 335.656L295.675 334.21V337.225L295.335 337.532C290.193 342.189 283.557 344.748 276.692 344.722V344.722ZM252.705 305.38C251.22 308.744 250.455 312.393 250.459 316.084C250.485 321.581 252.171 326.934 255.286 331.412C258.4 335.889 262.791 339.27 267.856 341.093C265.03 339.742 262.457 337.895 260.254 335.635C254.624 329.844 251.538 321.848 251.592 313.123C251.564 310.498 251.942 307.885 252.711 305.38H252.705ZM290.411 292.944C291.799 294.393 292.905 296.099 293.669 297.972V295.004C292.644 294.225 291.557 293.535 290.418 292.944H290.411ZM316.684 343.658H300.852V341.482H301.838C304.644 341.482 306.269 340.329 306.269 334.428V322.776C306.269 321.855 306.269 320.818 302.938 320.818H286.913C283.581 320.818 283.581 321.855 283.581 322.776V325.225C283.581 331.733 285.034 332.279 286.393 332.279H287.393V334.455H274.786V332.279H275.786C277.211 332.279 278.604 331.733 278.604 325.225V308.737C278.604 302.229 277.211 301.683 275.786 301.683H274.786V299.479H287.393V301.662H286.393C285.061 301.662 283.581 302.208 283.581 308.716V316.534C283.581 317.455 283.581 318.492 286.913 318.492H302.951C306.283 318.492 306.283 317.455 306.283 316.534V297.876C306.283 291.975 304.657 290.823 301.852 290.823H300.852V288.646H316.69V290.823H315.691C312.886 290.823 311.26 291.975 311.26 297.876V334.428C311.26 340.329 312.886 341.482 315.691 341.482H316.69L316.684 343.658ZM306.563 341.611H310.967C309.528 339.858 309.254 337.122 309.254 334.428V297.876C309.254 295.182 309.528 292.419 310.967 290.693H306.569C308.008 292.446 308.282 295.182 308.282 297.876V316.534C308.325 317.135 308.218 317.737 307.969 318.282C307.721 318.828 307.34 319.3 306.862 319.652C307.34 320.002 307.722 320.472 307.97 321.017C308.219 321.562 308.326 322.163 308.282 322.762V334.414C308.282 337.122 308.008 339.858 306.569 341.611H306.563ZM279.35 332.409H282.855C281.776 330.655 281.576 327.92 281.576 325.225V322.776C281.531 322.176 281.639 321.575 281.887 321.03C282.136 320.485 282.517 320.015 282.995 319.665C282.517 319.311 282.136 318.837 281.889 318.289C281.641 317.741 281.536 317.136 281.582 316.534V308.737C281.582 306.042 281.782 303.279 282.862 301.546H279.357C280.396 303.266 280.603 305.94 280.603 308.737V325.225C280.603 328.022 280.396 330.696 279.357 332.409H279.35Z" fill="#E7DBD0"/>
<path d="M340.198 342.505C344.789 342.505 346.535 340.322 345.176 334.626L341.424 318.404H334.761C331.783 318.404 330.424 319.086 329.777 321.453L326.672 334.626C325.34 340.322 327.385 342.505 332.622 342.505V342.635H321.828V342.505C323.707 342.505 325.26 339.265 327.265 330.656L337.153 288.408H337.473L348.207 334.626C349.54 340.391 351.059 342.505 353.318 342.505V342.635H340.192L340.198 342.505ZM334.828 318.138H341.364L335.927 295.032L331.156 315.423C330.823 317.346 331.856 318.138 334.828 318.138Z" fill="#E7DBD0"/>
<path d="M354.325 343.658H339.199V341.482H340.199C342.124 341.482 343.37 341.079 344.003 340.247C344.756 339.265 344.823 337.457 344.21 334.871L340.639 319.427H334.768C331.843 319.427 331.19 320.109 330.77 321.726L327.672 334.865C327.086 337.327 327.179 339.012 327.945 340.015C328.712 341.018 330.244 341.482 332.649 341.482H333.649V343.658H320.829V341.482H321.829C323.081 341.482 324.58 337.757 326.293 330.417L336.374 287.384H338.273L349.187 334.387C350.667 340.643 352.106 341.482 353.325 341.482H354.325V343.658ZM345.496 341.611H349.814C348.594 339.981 347.815 337.477 347.228 334.865L337.3 292.119L336.774 294.343L342.611 319.161L346.129 334.387C346.909 337.662 346.722 339.988 345.556 341.509L345.496 341.611ZM324.667 341.611H326.666C326.566 341.509 326.472 341.399 326.386 341.284C326.049 340.844 325.79 340.348 325.62 339.817C325.35 340.441 325.031 341.041 324.667 341.611V341.611ZM335.928 299.405L332.116 315.661C332.074 315.812 332.062 315.97 332.08 316.126C332.099 316.281 332.147 316.432 332.223 316.568C332.39 316.773 332.956 317.114 334.828 317.114H340.092L335.928 299.405Z" fill="#E7DBD0"/>
<path d="M365.139 293.511V334.442C365.139 340.336 366.758 342.519 370.576 342.519V342.648H359.382V342.519C363.2 342.519 364.819 340.336 364.819 334.442V292.978C363.267 290.795 361.648 289.799 359.322 289.799V289.67H367.005L386.921 330.717C388.154 333.371 389.446 335.158 389.446 330.587V297.842C389.446 291.948 387.827 289.765 384.009 289.765V289.636H395.203V289.765C391.385 289.765 389.766 291.948 389.766 297.842V343.665L367.111 297.119C366.527 295.876 365.868 294.671 365.139 293.511V293.511Z" fill="#E7DBD0"/>
<path d="M389.494 345.432L366.24 297.603H366.126V334.401C366.126 340.302 367.752 341.454 370.564 341.454H371.563V343.631H358.371V341.454H359.37C362.182 341.454 363.808 340.302 363.808 334.401V293.34C362.475 291.573 361.142 290.843 359.31 290.843H358.311V288.667H367.639L387.828 330.28C388.068 330.792 388.268 331.188 388.441 331.488C388.441 331.242 388.441 330.949 388.441 330.601V297.856C388.441 291.955 386.815 290.802 384.004 290.802H383.004V288.626H396.197V290.802H395.198C392.386 290.802 390.76 291.955 390.76 297.856V345.104C390.767 345.261 390.721 345.416 390.629 345.542C390.538 345.669 390.406 345.759 390.258 345.797C390.109 345.836 389.951 345.82 389.812 345.754C389.673 345.687 389.561 345.573 389.494 345.432V345.432ZM364.087 341.611H365.84C365.478 341.163 365.184 340.662 364.967 340.124C364.75 340.663 364.454 341.165 364.087 341.611ZM365.807 292.699L365.96 292.937C366.725 294.144 367.415 295.4 368.025 296.696L388.768 339.346V334.421C387.748 334.421 386.949 333.152 386.022 331.16L366.386 290.693H364.474L365.407 292.119L365.593 292.378L365.807 292.699ZM388.734 290.693C389.096 291.141 389.39 291.643 389.607 292.18C389.824 291.643 390.118 291.141 390.48 290.693H388.734Z" fill="#E7DBD0"/>
<path d="M399.748 316.084C399.748 300.926 411.908 288.606 426.98 288.606C433.443 288.606 440.366 290.796 444.971 294.5V307.878H444.711C444.711 295.428 438.241 289.008 426.994 289.008C413.407 289.008 402.8 299.596 402.866 313.11C402.8 329.66 414.447 342.635 429.319 342.635C431.873 342.676 434.413 342.251 436.822 341.38C440.573 339.79 441.992 336.748 441.992 332.77V324.959C441.992 321.453 439.087 320.184 432.164 320.184V320.055H450.401V320.184C446.583 320.184 444.971 322.367 444.971 328.261V336.741C441.055 340.268 436.233 342.569 431.077 343.372C425.922 344.174 420.649 343.444 415.887 341.267C411.125 339.091 407.074 335.56 404.215 331.094C401.356 326.629 399.811 321.416 399.761 316.077L399.748 316.084Z" fill="#E7DBD0"/>
<path d="M426.979 344.722C419.526 344.749 412.367 341.747 407.074 336.375C401.781 331.004 398.786 323.701 398.747 316.07C398.747 300.38 411.407 287.568 426.979 287.568C433.775 287.568 440.905 289.915 445.575 293.708L445.955 294.015V308.914H443.696V307.891C443.696 296.212 437.913 290.045 426.979 290.045C423.883 290.005 420.81 290.597 417.94 291.785C415.069 292.974 412.459 294.736 410.261 296.969C408.199 299.092 406.571 301.613 405.471 304.387C404.37 307.16 403.82 310.13 403.851 313.123C403.818 321.309 406.696 328.813 411.947 334.196C414.21 336.547 416.907 338.415 419.881 339.691C422.855 340.968 426.046 341.627 429.271 341.632C431.71 341.666 434.136 341.252 436.434 340.411C439.505 339.108 440.951 336.679 440.951 332.763V324.959C440.951 323.063 440.285 321.214 432.123 321.214H431.123V319.038H451.359V321.214H450.36C447.554 321.214 445.929 322.367 445.929 328.268V337.204L445.595 337.511C440.463 342.169 433.838 344.735 426.979 344.722ZM402.991 305.38C401.51 308.745 400.745 312.393 400.746 316.084C400.773 321.58 402.46 326.934 405.574 331.411C408.688 335.888 413.079 339.27 418.143 341.093C415.315 339.742 412.74 337.895 410.534 335.635C404.904 329.844 401.819 321.848 401.872 313.123C401.848 310.498 402.226 307.886 402.991 305.38V305.38ZM441.284 321.071C441.847 321.532 442.294 322.124 442.589 322.798C442.883 323.472 443.016 324.208 442.977 324.945V332.77C443.019 334.522 442.677 336.26 441.977 337.859C442.657 337.368 443.323 336.843 443.976 336.283V328.268C443.976 325.573 444.249 322.81 445.689 321.084L441.284 321.071ZM440.698 292.93C442.086 294.379 443.192 296.086 443.956 297.958V294.991C442.929 294.215 441.839 293.531 440.698 292.944V292.93Z" fill="#E7DBD0"/>
<path d="M205.89 211.191V215.435H176.639V235.661H204.384V240.061H176.633V261.96H207.17L206.11 266.285H172.035V211.191H205.89ZM207.223 209.827H170.709V267.67H207.156L207.403 266.633L208.462 262.314L208.875 260.616H177.965V241.426H205.71V234.297H177.965V216.799H207.223V209.827Z" fill="#E7DBD0"/>
<path d="M218.95 211.191V261.905H248.207L247.201 266.305H214.352V211.191H218.95V211.191ZM220.282 209.827H213.02V267.67H248.287L248.527 266.605L249.507 262.205L249.88 260.541H220.282V209.827V209.827Z" fill="#E7DBD0"/>
<path d="M288.512 211.191V215.435H259.261V235.661H286.98V240.061H259.235V261.96H289.772L288.712 266.285H254.637V211.191H288.512ZM289.845 209.827H253.331V267.67H289.785L290.031 266.633L291.091 262.314L291.504 260.616H260.567V241.426H288.312V234.297H260.567V216.799H289.845V209.827Z" fill="#E7DBD0"/>
<path d="M336.614 211.191V266.305H331.636L301.406 218.443V266.305H296.955V211.191H302.005L332.163 258.897V211.191H336.614V211.191ZM337.946 209.827H330.83V254.278L303.125 210.448L302.732 209.827H295.622V267.67H302.738V223.075L330.49 267.049L330.883 267.67H337.92V209.827H337.946Z" fill="#E7DBD0"/>
<path d="M369.616 211.191L390.872 266.305H385.901L379.418 249.476H354.098L347.688 266.305H342.864L364.186 211.191H369.616V211.191ZM355.737 245.157H377.759L366.671 216.362L355.737 245.157V245.157ZM370.523 209.827H363.28L362.947 210.687L341.625 265.8L340.898 267.67H348.594L348.927 266.803L355.004 250.84H378.518L384.675 266.803L385.002 267.67H392.844L392.124 265.807L370.869 210.687L370.536 209.827H370.523ZM357.689 243.793L366.678 220.108L375.8 243.793H357.689Z" fill="#E7DBD0"/>
<path d="M270.482 379.868L272.194 379.493C272.441 380.578 272.687 381.792 272.927 383.122H284.548V384.63H260.094V393.621C260.179 396.727 259.933 399.834 259.361 402.885C258.833 405.255 257.879 407.503 256.549 409.516C256.136 409.182 255.69 408.834 255.217 408.39C256.451 406.58 257.323 404.538 257.782 402.38C258.191 400.625 258.395 397.621 258.395 393.369V383.136H271.355C271.102 382.04 270.811 380.951 270.482 379.868ZM277.811 385.755H279.404V388.484H284.175V389.992H279.404V395.122H273.294V398.628H282.462V403.758C282.622 405.928 281.563 407.065 279.284 407.169H276.472L276.106 405.805H278.917C280.299 405.887 280.95 405.177 280.87 403.676V400.17H273.3V409.557H271.708V400.15H264.252V407.654H262.659V398.649H271.708V395.142H265.591V390.012H261.44V388.505H265.591V385.776H267.19V388.505H277.851L277.811 385.755ZM267.15 390.012V393.764H277.811V390.012H267.15Z" fill="#E7DBD0"/>
<path d="M294.51 382.706H300.986V379.432H302.579V382.706H308.815V384.207H302.579V387.714H307.836V399.079H302.579V402.708H308.689V404.209H302.579V409.591H300.986V404.209H294.243V402.708H300.966V399.079H295.589V387.686H300.966V384.18H294.51V382.706ZM297.175 389.214V392.721H306.223V389.214H297.175ZM297.175 394.099V397.605H306.223V394.099H297.175ZM311.361 381.342H322.022V405.505C322.102 407.838 321.042 409.011 318.837 409.011H315.658L315.292 407.258C316.191 407.34 317.131 407.381 318.104 407.381C319.818 407.545 320.594 406.835 320.429 405.253V399.113H312.827C312.657 403.038 311.04 406.751 308.302 409.503C307.916 409.061 307.466 408.682 306.97 408.377C308.608 406.843 309.831 404.902 310.521 402.742C311.09 400.923 311.374 397.835 311.374 393.478L311.361 381.342ZM312.953 382.843V389.48H320.409V382.843H312.953ZM312.953 393.485V397.619H320.409V390.981H312.953V393.485Z" fill="#E7DBD0"/>
<path d="M332.436 396.207C332.336 396.006 332.254 395.796 332.19 395.58C331.943 395.082 331.783 394.747 331.703 394.577C334.669 390.052 336.897 385.064 338.3 379.807L339.772 380.183C338.95 382.77 338.093 385.19 337.2 387.441V409.599H335.614V390.702C334.711 392.627 333.647 394.468 332.436 396.207V396.207ZM351.999 393.328H353.585C353.585 394.493 353.667 396.162 353.831 398.336H361.287V399.7H354.078C354.276 401.104 354.602 402.486 355.051 403.827C356.13 402.893 357.151 401.89 358.109 400.826L359.209 401.828C357.989 403.077 356.803 404.202 355.664 405.239C355.961 405.716 356.332 406.14 356.763 406.495C357.17 407.245 357.663 407.572 358.229 407.491C358.722 407.572 359.129 407.074 359.455 405.99C359.764 405.143 359.97 404.261 360.068 403.363C360.542 403.607 361.032 403.817 361.534 403.991C361.454 404.325 361.367 404.741 361.287 405.239C361.207 405.737 361.001 406.283 360.921 406.604C360.435 408.357 359.588 409.189 358.356 409.107C357.836 409.124 357.32 409.009 356.854 408.771C356.389 408.532 355.989 408.179 355.69 407.743C355.36 407.388 355.065 406.999 354.811 406.583C354.616 406.402 354.449 406.19 354.318 405.956C352.651 407.07 350.892 408.034 349.061 408.834C348.8 408.368 348.47 407.947 348.081 407.586C350.022 406.821 351.904 405.909 353.711 404.857C353.084 403.21 352.672 401.485 352.486 399.727H346.375V402.354C346.862 402.272 347.515 402.19 348.328 402.101L350.527 401.726C350.504 402.185 350.547 402.644 350.653 403.09C350.24 403.179 349.467 403.302 348.328 403.466C347.428 403.554 346.782 403.636 346.375 403.718V405.594C346.375 407.763 345.396 408.9 343.437 409.005H340.992V408.255C340.929 407.965 340.889 407.671 340.872 407.375C341.519 407.462 342.171 407.503 342.824 407.497C344.297 407.579 344.983 406.877 344.903 405.369V403.855C343.681 404.027 342.051 404.277 340.012 404.605C339.901 404.676 339.776 404.72 339.646 404.735L339.406 403.104C339.972 403.022 340.825 402.94 341.971 402.852L344.903 402.476V399.748H339.406V398.383H344.903V396.003C343.57 396.091 342.238 396.132 340.872 396.132C340.854 396 340.811 395.872 340.745 395.757C340.742 395.408 340.66 395.065 340.505 394.754C342.784 394.754 345.8 394.586 349.554 394.249L349.794 395.614H349.427C348.419 395.785 347.398 395.87 346.375 395.866V398.37H352.239C352.141 397.539 352.101 396.702 352.119 395.866C352.039 394.747 351.999 393.915 351.999 393.328V393.328ZM341.725 387.189H349.814V384.555H340.379V383.307H347.108C346.268 382.298 345.325 381.383 344.297 380.578L345.396 379.453C346.535 380.361 347.598 381.365 348.574 382.454L347.715 383.334H353.585L352.605 382.332C353.813 381.496 354.93 380.531 355.937 379.453L357.156 380.456C356.49 381.138 355.444 382.079 353.978 383.334H360.828V384.583H351.386V387.216H359.702V388.58H351.386V391.084H361.381V392.448H339.859V391.084H349.814V388.574H341.725V387.189ZM355.417 394.304L356.523 393.424C356.843 393.758 357.296 394.263 357.856 394.925C358.416 395.586 358.835 396.057 359.082 396.289L357.856 397.292C357.529 396.876 356.883 396.084 355.904 394.911C355.712 394.735 355.548 394.53 355.417 394.304V394.304Z" fill="#E7DBD0"/>
<path d="M450.214 378.92H416.339C412.553 378.92 408.922 380.46 406.244 383.2C403.567 385.94 402.061 389.657 402.06 393.533V394.488C402.061 398.365 403.566 402.082 406.244 404.823C408.921 407.564 412.552 409.105 416.339 409.107H450.214C454 409.105 457.631 407.564 460.309 404.823C462.986 402.082 464.491 398.365 464.493 394.488V393.533C464.491 389.657 462.986 385.94 460.308 383.2C457.631 380.46 454 378.92 450.214 378.92V378.92ZM426.6 389.249H420.516L419.923 392.121H425.647L425.161 394.481H419.437L418.771 397.728H425.234L424.494 400.068H415.606L418.318 386.909H427.106L426.6 389.249ZM430.358 395.757C430.44 396.18 430.595 396.584 430.818 396.951C431.028 397.292 431.322 397.572 431.67 397.762C432.083 397.975 432.542 398.076 433.003 398.056C433.466 398.064 433.929 398.018 434.382 397.919C434.795 397.824 435.188 397.653 435.542 397.414L436.008 395.15H433.563L434.049 392.864H438.98L437.754 398.629C437.143 399.184 436.436 399.617 435.668 399.904C434.757 400.245 433.793 400.411 432.823 400.396C431.988 400.419 431.157 400.263 430.384 399.939C429.741 399.657 429.17 399.225 428.719 398.676C428.278 398.122 427.954 397.482 427.766 396.794C427.557 396.049 427.453 395.277 427.459 394.502C427.457 393.482 427.615 392.469 427.926 391.5C428.21 390.58 428.662 389.723 429.258 388.976C429.856 388.243 430.599 387.648 431.437 387.229C432.342 386.772 433.34 386.538 434.349 386.547C435.575 386.462 436.789 386.846 437.754 387.625C438.561 388.408 439.039 389.482 439.087 390.62L436.421 390.988C436.371 390.38 436.117 389.809 435.702 389.372C435.237 389.015 434.662 388.843 434.082 388.887C433.498 388.877 432.922 389.031 432.417 389.331C431.929 389.626 431.513 390.029 431.197 390.511C430.848 391.036 430.591 391.62 430.438 392.237C430.264 392.904 430.176 393.592 430.178 394.283C430.19 394.779 430.25 395.273 430.358 395.757V395.757ZM443.517 395.757C443.587 396.178 443.737 396.581 443.957 396.944C444.164 397.277 444.445 397.555 444.777 397.756C445.161 397.973 445.597 398.08 446.036 398.063C446.764 398.114 447.483 397.869 448.035 397.38C448.52 396.869 448.83 396.211 448.921 395.504H451.76C451.621 396.212 451.398 396.9 451.093 397.551C450.824 398.153 450.43 398.689 449.941 399.122C449.451 399.555 448.876 399.875 448.255 400.061C447.463 400.307 446.637 400.422 445.81 400.402C444.985 400.427 444.164 400.268 443.404 399.939C442.768 399.644 442.205 399.205 441.758 398.656C441.319 398.1 440.997 397.456 440.812 396.766C440.614 396.019 440.516 395.248 440.519 394.474C440.515 393.461 440.672 392.454 440.986 391.493C441.279 390.577 441.73 389.722 442.318 388.969C442.898 388.244 443.62 387.652 444.437 387.229C445.301 386.777 446.258 386.543 447.229 386.547C447.966 386.533 448.7 386.646 449.401 386.882C449.969 387.075 450.489 387.392 450.927 387.809C451.331 388.215 451.642 388.706 451.84 389.249C452.058 389.844 452.191 390.469 452.233 391.104L449.568 391.473C449.525 391.103 449.452 390.738 449.348 390.381C449.266 390.084 449.118 389.811 448.915 389.583C448.718 389.359 448.471 389.188 448.195 389.085C447.856 388.959 447.496 388.899 447.136 388.908C446.572 388.898 446.018 389.052 445.536 389.351C445.06 389.651 444.653 390.054 444.344 390.531C444.007 391.055 443.755 391.631 443.597 392.237C443.304 393.37 443.258 394.556 443.464 395.709L443.517 395.757Z" fill="#E7DBD0"/>
<path d="M206.397 399.864C205.692 399.893 205.002 399.65 204.465 399.182C204.217 398.938 204.024 398.643 203.9 398.315C203.776 397.987 203.723 397.636 203.745 397.285C203.721 396.701 203.869 396.123 204.172 395.627C204.455 395.195 204.84 394.843 205.291 394.604C205.8 394.34 206.347 394.158 206.91 394.065C207.538 393.956 208.173 393.89 208.809 393.867L210.475 393.799L210.528 393.506C210.551 393.318 210.56 393.129 210.555 392.94C210.566 392.754 210.538 392.568 210.474 392.394C210.409 392.22 210.31 392.062 210.182 391.93C209.839 391.657 209.408 391.527 208.976 391.568C208.48 391.541 207.985 391.632 207.53 391.834C207.162 392.06 206.892 392.421 206.777 392.844L204.971 392.646C205.18 391.792 205.709 391.057 206.444 390.6C207.291 390.162 208.234 389.956 209.182 389.999C210.058 389.941 210.925 390.204 211.628 390.743C211.912 391.007 212.136 391.331 212.284 391.693C212.433 392.054 212.502 392.445 212.487 392.837C212.487 393.013 212.474 393.189 212.447 393.363C212.447 393.54 212.401 393.731 212.361 393.922L211.221 399.632H209.322L209.569 398.411C209.172 398.82 208.724 399.174 208.236 399.461C207.667 399.755 207.034 399.894 206.397 399.864V399.864ZM210.175 395.191L208.843 395.259C208.348 395.286 207.856 395.35 207.37 395.45C207.034 395.514 206.711 395.639 206.417 395.818C206.201 395.955 206.028 396.151 205.917 396.385C205.815 396.626 205.765 396.886 205.771 397.149C205.768 397.296 205.795 397.443 205.849 397.58C205.902 397.717 205.982 397.842 206.084 397.947C206.214 398.067 206.367 398.159 206.533 398.216C206.7 398.274 206.875 398.296 207.05 398.281C207.404 398.284 207.755 398.227 208.09 398.111C208.407 398.005 208.706 397.848 208.976 397.647C209.24 397.451 209.467 397.205 209.642 396.924C209.825 396.637 209.954 396.318 210.022 395.982L210.175 395.191Z" fill="#E7DBD0"/>
<path d="M213.218 399.632L213.731 397.135H215.883L215.37 399.632H213.218Z" fill="#E7DBD0"/>
<path d="M217.424 399.631L220.089 386.792H222.088L220.629 393.839L225.126 390.278H227.565L223.601 393.532L225.919 399.631H223.847L222.035 394.617L220.156 396.05L219.436 399.631H217.424Z" fill="#E7DBD0"/>
<path d="M227.046 399.632L227.552 397.135H229.678L229.171 399.632H227.046Z" fill="#E7DBD0"/>
<path d="M234.009 399.863C233.304 399.893 232.614 399.649 232.076 399.181C231.828 398.938 231.636 398.642 231.511 398.314C231.387 397.987 231.334 397.635 231.357 397.285C231.333 396.702 231.479 396.125 231.776 395.627C232.063 395.196 232.45 394.844 232.902 394.604C233.411 394.338 233.958 394.156 234.522 394.065C235.147 393.956 235.78 393.89 236.414 393.867L238.086 393.799L238.14 393.505C238.173 393.305 238.191 393.102 238.193 392.898C238.204 392.712 238.176 392.527 238.112 392.353C238.047 392.179 237.948 392.021 237.82 391.889C237.475 391.615 237.041 391.486 236.607 391.527C236.114 391.499 235.621 391.59 235.168 391.793C234.8 392.018 234.53 392.38 234.415 392.803L232.603 392.605C232.819 391.753 233.349 391.019 234.082 390.558C234.929 390.12 235.872 389.913 236.82 389.958C237.694 389.898 238.56 390.162 239.259 390.702C239.545 390.964 239.771 391.288 239.92 391.65C240.07 392.012 240.14 392.403 240.125 392.796C240.125 392.972 240.112 393.147 240.085 393.321C240.085 393.499 240.032 393.69 239.999 393.881L238.806 399.597H236.907L237.154 398.376C236.757 398.786 236.309 399.139 235.821 399.427C235.263 399.727 234.639 399.877 234.009 399.863V399.863ZM237.787 395.19L236.454 395.259C235.959 395.286 235.467 395.35 234.981 395.45C234.645 395.513 234.322 395.638 234.029 395.818C233.813 395.954 233.639 396.151 233.529 396.384C233.427 396.625 233.377 396.886 233.382 397.148C233.38 397.296 233.406 397.443 233.46 397.58C233.514 397.717 233.594 397.842 233.695 397.946C233.826 398.067 233.979 398.158 234.145 398.216C234.311 398.273 234.487 398.295 234.662 398.281C235.353 398.282 236.027 398.06 236.587 397.646C237.124 397.242 237.496 396.649 237.633 395.982L237.787 395.19Z" fill="#E7DBD0"/>
<path d="M240.851 399.632L241.364 397.135H243.49L242.977 399.632H240.851Z" fill="#E7DBD0"/>
<path d="M378.585 389.992C379.137 389.983 379.685 390.088 380.197 390.299C380.653 390.49 381.067 390.771 381.417 391.125C381.761 391.479 382.027 391.905 382.196 392.373C382.38 392.87 382.472 393.397 382.47 393.928C382.482 394.791 382.349 395.65 382.076 396.466C381.839 397.163 381.463 397.802 380.97 398.342C380.494 398.852 379.917 399.252 379.278 399.516C378.599 399.789 377.875 399.925 377.146 399.918C376.598 399.926 376.054 399.821 375.547 399.611C375.089 399.422 374.672 399.141 374.321 398.786C373.975 398.433 373.705 398.01 373.528 397.544C373.338 397.046 373.243 396.516 373.248 395.982C373.236 395.126 373.376 394.276 373.661 393.471C373.91 392.774 374.295 392.135 374.794 391.595C375.269 391.081 375.846 390.676 376.486 390.408C377.152 390.127 377.865 389.986 378.585 389.992V389.992ZM378.445 391.65C378.015 391.644 377.59 391.745 377.206 391.943C376.818 392.151 376.48 392.442 376.213 392.796C375.91 393.205 375.684 393.667 375.547 394.16C375.38 394.743 375.299 395.348 375.307 395.955C375.273 396.564 375.452 397.167 375.813 397.653C375.995 397.863 376.22 398.027 376.473 398.135C376.726 398.242 376.999 398.29 377.272 398.274C377.703 398.278 378.128 398.175 378.512 397.974C378.898 397.771 379.235 397.482 379.498 397.128C379.801 396.72 380.027 396.257 380.164 395.764C380.332 395.179 380.413 394.572 380.404 393.963C380.437 393.352 380.26 392.748 379.904 392.257C379.726 392.049 379.504 391.886 379.254 391.781C379.004 391.676 378.734 391.631 378.465 391.65H378.445Z" fill="#E7DBD0"/>
<path d="M389.792 392.08C389.672 392.051 389.549 392.031 389.426 392.018C389.262 392.006 389.097 392.006 388.933 392.018C388.671 392.02 388.411 392.059 388.16 392.134C387.861 392.221 387.581 392.364 387.334 392.557C387.072 392.779 386.835 393.031 386.628 393.308C386.431 393.581 386.294 393.896 386.228 394.229L385.108 399.686H383.109L385.042 390.333H386.994L386.707 391.698C387.075 391.224 387.527 390.825 388.04 390.524C388.483 390.284 388.978 390.162 389.479 390.169C389.646 390.157 389.813 390.157 389.979 390.169L390.319 390.231L389.792 392.08Z" fill="#E7DBD0"/>
<path d="M450.686 420.677H212.147C205.401 420.668 198.933 417.921 194.163 413.037C189.393 408.153 186.709 401.532 186.7 394.625V393.397C186.709 386.49 189.393 379.869 194.163 374.985C198.933 370.101 205.401 367.353 212.147 367.344H450.686C457.433 367.351 463.901 370.099 468.672 374.983C473.442 379.867 476.126 386.489 476.133 393.397V394.625C476.126 401.532 473.442 408.155 468.672 413.039C463.901 417.923 457.433 420.67 450.686 420.677V420.677ZM212.147 369.391C205.93 369.398 199.97 371.929 195.575 376.43C191.179 380.93 188.706 387.032 188.699 393.397V394.625C188.706 400.989 191.179 407.091 195.575 411.592C199.97 416.092 205.93 418.624 212.147 418.631H450.686C456.903 418.624 462.863 416.092 467.258 411.592C471.654 407.091 474.127 400.989 474.134 394.625V393.397C474.127 387.032 471.654 380.93 467.258 376.43C462.863 371.929 456.903 369.398 450.686 369.391H212.147Z" fill="#E7DBD0"/>
<path d="M509.469 513.597H53.4452C44.079 513.597 34.8778 511.073 26.7664 506.278C18.6551 501.483 11.9194 494.587 7.23632 486.282C2.55326 477.977 0.0878522 468.557 0.0878906 458.968C0.0879291 449.378 2.55341 439.958 7.23654 431.653L235.248 27.2872C239.932 18.9829 246.667 12.087 254.779 7.29251C262.89 2.49806 272.091 -0.026001 281.457 -0.026001C290.823 -0.026001 300.024 2.49806 308.135 7.29251C316.247 12.087 322.982 18.9829 327.666 27.2872L555.704 431.653C560.387 439.958 562.853 449.378 562.853 458.968C562.853 468.557 560.388 477.977 555.704 486.282C551.021 494.587 544.286 501.483 536.174 506.278C528.063 511.073 518.862 513.597 509.496 513.597H509.469ZM236.115 27.8261L236.974 28.3377L8.96228 432.676C4.45437 440.67 2.08125 449.738 2.08144 458.969C2.08164 468.2 4.45516 477.267 8.96341 485.261C13.4717 493.255 19.9558 499.893 27.764 504.508C35.5722 509.122 44.4294 511.551 53.4452 511.551H509.469C518.484 511.55 527.34 509.12 535.148 504.505C542.955 499.89 549.438 493.252 553.946 485.258C558.453 477.265 560.826 468.197 560.826 458.967C560.826 449.737 558.453 440.67 553.945 432.676L325.933 28.3377C321.426 20.3436 314.942 13.7051 307.134 9.08959C299.327 4.47408 290.47 2.04421 281.454 2.04421C272.438 2.04421 263.581 4.47408 255.773 9.08959C247.965 13.7051 241.482 20.3436 236.974 28.3377L236.115 27.8261Z" fill="#E7DBD0"/>
<path d="M338.685 176.373C337.373 176.269 336.14 175.688 335.21 174.734C334.28 173.781 333.714 172.518 333.615 171.174L333.555 170.383C333.539 170.173 333.447 169.977 333.296 169.834C333.145 169.691 332.947 169.611 332.742 169.612V169.612C332.536 169.611 332.338 169.691 332.187 169.834C332.036 169.977 331.944 170.173 331.929 170.383L331.869 171.174C331.769 172.518 331.203 173.781 330.273 174.734C329.343 175.688 328.11 176.269 326.798 176.373L326.019 176.434C325.814 176.449 325.622 176.544 325.482 176.698C325.342 176.853 325.265 177.056 325.266 177.266V177.266C325.265 177.477 325.342 177.68 325.482 177.834C325.622 177.988 325.814 178.083 326.019 178.098L326.798 178.16C328.11 178.262 329.342 178.842 330.273 179.794C331.203 180.746 331.769 182.008 331.869 183.351L331.929 184.143C331.944 184.353 332.036 184.549 332.187 184.692C332.338 184.835 332.536 184.914 332.742 184.913C332.947 184.914 333.145 184.835 333.296 184.692C333.447 184.549 333.539 184.353 333.555 184.143L333.615 183.351C333.714 182.008 334.28 180.746 335.211 179.794C336.141 178.842 337.373 178.262 338.685 178.16L339.465 178.098C339.669 178.081 339.86 177.986 339.999 177.832C340.139 177.678 340.217 177.476 340.218 177.266V177.266C340.217 177.056 340.139 176.854 339.999 176.7C339.86 176.546 339.669 176.451 339.465 176.434L338.685 176.373Z" fill="#E7DBD0"/>
<path d="M235.808 176.373C234.496 176.269 233.263 175.688 232.333 174.734C231.403 173.781 230.837 172.518 230.738 171.174L230.678 170.383C230.662 170.173 230.57 169.977 230.419 169.834C230.268 169.691 230.07 169.611 229.865 169.612V169.612C229.659 169.611 229.461 169.691 229.31 169.834C229.159 169.977 229.067 170.173 229.052 170.383L228.992 171.174C228.892 172.518 228.326 173.781 227.396 174.734C226.466 175.688 225.233 176.269 223.921 176.373L223.142 176.434C222.937 176.451 222.746 176.546 222.607 176.7C222.468 176.854 222.39 177.056 222.389 177.266V177.266C222.39 177.476 222.468 177.678 222.607 177.832C222.746 177.986 222.937 178.081 223.142 178.098L223.921 178.16C225.233 178.262 226.465 178.842 227.396 179.794C228.326 180.746 228.892 182.008 228.992 183.351L229.052 184.143C229.067 184.353 229.159 184.549 229.31 184.692C229.461 184.835 229.659 184.914 229.865 184.913C230.07 184.914 230.268 184.835 230.419 184.692C230.57 184.549 230.662 184.353 230.678 184.143L230.738 183.351C230.837 182.008 231.404 180.746 232.334 179.794C233.264 178.842 234.496 178.262 235.808 178.16L236.588 178.098C236.793 178.083 236.984 177.988 237.124 177.834C237.264 177.68 237.341 177.477 237.341 177.266C237.341 177.056 237.264 176.853 237.124 176.698C236.984 176.544 236.793 176.449 236.588 176.434L235.808 176.373Z" fill="#E7DBD0"/>
<path d="M249.433 135.789L252.465 121.129H257.129C257.971 121.117 258.806 121.275 259.588 121.592C260.286 121.879 260.918 122.314 261.44 122.868C261.951 123.412 262.348 124.058 262.606 124.765C262.877 125.513 263.012 126.306 263.006 127.104C263.02 128.313 262.833 129.515 262.453 130.659C262.105 131.682 261.541 132.614 260.801 133.387C260.016 134.173 259.075 134.775 258.042 135.154C256.806 135.591 255.505 135.801 254.197 135.775L249.433 135.789ZM254.531 133.708C255.44 133.73 256.346 133.57 257.196 133.237C257.916 132.952 258.56 132.496 259.075 131.907C259.577 131.311 259.952 130.614 260.174 129.861C260.429 129 260.552 128.105 260.541 127.207C260.543 126.691 260.469 126.178 260.321 125.686C260.182 125.228 259.956 124.804 259.655 124.437C259.342 124.077 258.958 123.789 258.528 123.591C258.031 123.376 257.495 123.272 256.956 123.284H254.431L252.265 133.708H254.531Z" fill="#E7DBD0"/>
<path d="M272.441 120.747C273.256 120.736 274.066 120.886 274.826 121.19C275.505 121.465 276.117 121.889 276.619 122.432C277.12 122.99 277.506 123.647 277.751 124.362C278.026 125.167 278.162 126.014 278.151 126.866C278.151 128.022 277.982 129.172 277.651 130.277C277.339 131.353 276.833 132.359 276.159 133.244C275.493 134.114 274.652 134.826 273.693 135.332C272.64 135.874 271.474 136.146 270.295 136.123C269.475 136.134 268.661 135.984 267.897 135.68C267.208 135.406 266.585 134.982 266.071 134.438C265.56 133.884 265.167 133.226 264.918 132.508C264.644 131.703 264.508 130.856 264.518 130.004C264.519 128.846 264.695 127.696 265.038 126.593C265.367 125.514 265.887 124.506 266.571 123.619C267.246 122.75 268.093 122.036 269.056 121.524C270.106 120.987 271.268 120.721 272.441 120.747V120.747ZM272.254 122.882C271.451 122.865 270.66 123.078 269.969 123.496C269.316 123.909 268.759 124.463 268.336 125.12C267.894 125.814 267.564 126.576 267.357 127.378C267.134 128.202 267.022 129.053 267.024 129.908C266.969 130.975 267.27 132.028 267.877 132.896C268.186 133.278 268.579 133.578 269.024 133.772C269.469 133.967 269.953 134.05 270.435 134.015C271.232 134.031 272.018 133.816 272.701 133.394C273.356 132.985 273.914 132.43 274.333 131.771C274.777 131.077 275.11 130.314 275.319 129.513C275.538 128.683 275.648 127.827 275.646 126.968C275.653 126.404 275.584 125.841 275.439 125.297C275.304 124.828 275.077 124.392 274.773 124.014C274.486 123.658 274.124 123.374 273.713 123.182C273.252 122.982 272.755 122.884 272.254 122.896V122.882Z" fill="#E7DBD0"/>
<path d="M278.884 135.789L281.909 121.129H284.334L281.309 135.789H278.884Z" fill="#E7DBD0"/>
<path d="M293.477 135.789L288.866 125.154L286.661 135.789H284.315L287.34 121.129H289.386L293.964 131.805L296.169 121.129H298.508L295.476 135.789H293.477Z" fill="#E7DBD0"/>
<path d="M309.66 125.481C309.591 124.72 309.252 124.012 308.707 123.489C308.114 123.046 307.388 122.829 306.655 122.875C305.907 122.861 305.168 123.052 304.516 123.428C303.894 123.803 303.36 124.313 302.95 124.922C302.516 125.576 302.192 126.3 301.991 127.064C301.768 127.886 301.656 128.735 301.658 129.588C301.655 130.167 301.722 130.745 301.858 131.307C301.979 131.814 302.191 132.293 302.484 132.719C302.762 133.126 303.133 133.459 303.563 133.688C304.055 133.939 304.6 134.063 305.149 134.05C305.804 134.063 306.458 133.976 307.088 133.79C307.576 133.633 308.038 133.403 308.461 133.108L309.08 130.093H305.909L306.355 127.999H311.786L310.453 134.22C309.796 134.802 309.045 135.264 308.234 135.585C307.196 135.995 306.089 136.193 304.976 136.164C304.098 136.182 303.227 136.012 302.417 135.666C301.718 135.355 301.094 134.889 300.592 134.302C300.093 133.704 299.721 133.007 299.499 132.255C299.253 131.443 299.132 130.596 299.139 129.745C299.136 128.588 299.309 127.437 299.652 126.334C299.975 125.291 300.491 124.32 301.171 123.476C301.832 122.648 302.653 121.97 303.583 121.484C304.599 120.969 305.721 120.712 306.855 120.733C308.155 120.654 309.439 121.056 310.473 121.866C311.387 122.695 311.947 123.859 312.032 125.106L309.66 125.481Z" fill="#E7DBD0"/>
<path d="M217.511 147.925L214.926 160.43H212.5L215.086 147.925H210.555L210.994 145.77H222.468L222.022 147.925H217.511Z" fill="#E7DBD0"/>
<path d="M229.877 160.43L231.21 154.004H224.773L223.441 160.43H221.009L224.04 145.77H226.466L225.24 151.705H231.683L232.902 145.77H235.328L232.303 160.43H229.877Z" fill="#E7DBD0"/>
<path d="M240.298 147.905L239.499 151.807H246.195L245.755 153.963H239.059L238.153 158.267H245.675L244.956 160.402H235.307L238.333 145.742H247.867L247.448 147.878L240.298 147.905Z" fill="#E7DBD0"/>
<path d="M263.725 149.098C263.773 149.957 263.512 150.804 262.992 151.479C262.437 152.111 261.729 152.582 260.94 152.844C261.516 153.105 262.008 153.528 262.359 154.065C262.67 154.571 262.832 155.159 262.825 155.757C262.833 156.419 262.709 157.076 262.459 157.687C262.216 158.269 261.833 158.778 261.346 159.168C260.777 159.613 260.127 159.937 259.434 160.123C258.536 160.362 257.61 160.474 256.682 160.457H251.312L254.337 145.797H259.114C259.852 145.781 260.588 145.875 261.3 146.076C261.817 146.225 262.301 146.475 262.725 146.813C263.066 147.097 263.33 147.466 263.492 147.884C263.641 148.271 263.72 148.683 263.725 149.098ZM254.037 158.444H256.869C257.825 158.528 258.783 158.289 259.594 157.762C259.874 157.515 260.094 157.205 260.237 156.855C260.379 156.506 260.439 156.127 260.413 155.75C260.428 155.481 260.382 155.212 260.277 154.965C260.173 154.717 260.015 154.498 259.814 154.324C259.238 153.938 258.553 153.761 257.868 153.819H255.023L254.037 158.444ZM258.268 151.786C258.648 151.787 259.027 151.753 259.401 151.684C259.745 151.625 260.075 151.5 260.373 151.316C260.651 151.138 260.88 150.892 261.04 150.599C261.22 150.244 261.307 149.847 261.293 149.446C261.299 149.212 261.254 148.98 261.16 148.766C261.067 148.552 260.928 148.363 260.753 148.212C260.157 147.83 259.453 147.665 258.754 147.741H256.262L255.443 151.786H258.268Z" fill="#E7DBD0"/>
<path d="M266.525 160.43H264.14L267.191 145.769H271.855C272.631 145.748 273.405 145.866 274.141 146.117C274.692 146.316 275.199 146.625 275.633 147.025C276.003 147.374 276.283 147.813 276.446 148.3C276.604 148.768 276.686 149.259 276.686 149.753C276.742 150.792 276.424 151.816 275.793 152.632C275.159 153.367 274.327 153.894 273.401 154.147L275.127 160.43H272.522L271.102 154.624C270.963 154.624 270.829 154.624 270.689 154.624H267.731L266.525 160.43ZM270.876 152.55C271.324 152.552 271.77 152.506 272.209 152.414C272.585 152.337 272.943 152.184 273.261 151.964C273.553 151.745 273.783 151.45 273.928 151.111C274.099 150.695 274.181 150.246 274.168 149.794C274.169 149.538 274.126 149.284 274.041 149.044C273.946 148.802 273.792 148.588 273.594 148.423C273.352 148.224 273.073 148.076 272.775 147.986C272.361 147.867 271.932 147.812 271.502 147.823H269.097L268.131 152.55H270.876Z" fill="#E7DBD0"/>
<path d="M286.888 145.77L289.313 160.43H286.828L286.261 156.698H280.691L278.579 160.43H275.974L284.476 145.77H286.888ZM281.771 154.638H286.002L285.122 148.601L281.771 154.638Z" fill="#E7DBD0"/>
<path d="M299.914 160.43L295.303 149.794L293.091 160.43H290.745L293.777 145.77H295.842L300.413 156.453L302.619 145.77H304.984L301.959 160.43H299.914Z" fill="#E7DBD0"/>
<path d="M304.951 160.43L307.983 145.77H312.647C313.488 145.758 314.324 145.915 315.106 146.233C315.804 146.52 316.436 146.955 316.958 147.509C317.469 148.053 317.866 148.699 318.124 149.406C318.394 150.155 318.53 150.947 318.524 151.746C318.538 152.954 318.351 154.156 317.971 155.3C317.623 156.323 317.059 157.255 316.318 158.028C315.536 158.817 314.594 159.42 313.56 159.795C312.326 160.232 311.027 160.442 309.722 160.416L304.951 160.43ZM310.048 158.315C310.958 158.335 311.863 158.175 312.714 157.844C313.435 157.549 314.077 157.081 314.586 156.48C315.09 155.884 315.467 155.187 315.692 154.433C315.941 153.572 316.062 152.678 316.052 151.78C316.055 151.266 315.981 150.756 315.832 150.265C315.698 149.804 315.471 149.376 315.166 149.01C314.855 148.649 314.471 148.362 314.04 148.171C313.544 147.951 313.007 147.843 312.467 147.857H309.942L307.796 158.288L310.048 158.315Z" fill="#E7DBD0"/>
<path d="M319.21 160.43L322.235 145.77H324.66L321.635 160.43H319.21Z" fill="#E7DBD0"/>
<path d="M333.822 160.43L329.211 149.794L327.005 160.43H324.66L327.685 145.77H329.731L334.308 156.453L336.487 145.77H338.852L335.821 160.43H333.822Z" fill="#E7DBD0"/>
<path d="M349.987 150.122C349.918 149.361 349.579 148.653 349.034 148.13C348.441 147.687 347.715 147.47 346.982 147.516C346.234 147.503 345.496 147.694 344.843 148.069C344.222 148.442 343.689 148.953 343.284 149.563C342.845 150.215 342.518 150.94 342.318 151.705C342.095 152.529 341.983 153.381 341.985 154.236C341.981 154.813 342.05 155.389 342.191 155.948C342.31 156.454 342.52 156.933 342.811 157.36C343.089 157.767 343.46 158.1 343.89 158.329C344.382 158.58 344.927 158.704 345.476 158.69C346.132 158.704 346.785 158.617 347.415 158.431C347.903 158.275 348.366 158.045 348.788 157.749L349.407 154.734H346.242L346.682 152.639H352.113L350.78 158.861C350.124 159.445 349.373 159.906 348.561 160.225C347.522 160.633 346.415 160.83 345.303 160.805C344.425 160.825 343.553 160.656 342.744 160.307C342.045 159.996 341.421 159.53 340.919 158.943C340.419 158.346 340.047 157.649 339.826 156.896C339.58 156.081 339.458 155.232 339.466 154.379C339.463 153.222 339.636 152.071 339.979 150.968C340.297 149.921 340.808 148.946 341.485 148.096C342.146 147.268 342.967 146.59 343.897 146.104C344.913 145.589 346.035 145.332 347.169 145.354C348.468 145.274 349.753 145.676 350.787 146.486C351.701 147.316 352.261 148.479 352.346 149.726L349.987 150.122Z" fill="#E7DBD0"/>
<path d="M259.462 172.593L256.877 185.097H254.451L257.036 172.593H252.532L252.972 170.437H264.446L263.999 172.593H259.462Z" fill="#E7DBD0"/>
<path d="M271.855 185.07L273.188 178.644H266.751L265.418 185.07H262.986L266.018 170.41H268.443L267.191 176.345H273.634L274.853 170.41H277.279L274.254 185.07H271.855Z" fill="#E7DBD0"/>
<path d="M277.258 185.07L280.283 170.41H282.715L279.683 185.07H277.258Z" fill="#E7DBD0"/>
<path d="M291.844 185.07L287.233 174.435L285.028 185.07H282.682L285.707 170.41H287.753L292.331 181.086L294.536 170.41H296.901L293.87 185.07H291.844Z" fill="#E7DBD0"/>
<path d="M308.042 174.763C307.968 174.002 307.627 173.294 307.083 172.771C306.489 172.327 305.763 172.11 305.03 172.157C304.282 172.143 303.544 172.334 302.892 172.709C302.27 173.083 301.737 173.593 301.332 174.203C300.893 174.856 300.566 175.58 300.366 176.345C300.144 177.167 300.032 178.016 300.033 178.869C300.032 179.449 300.102 180.026 300.24 180.589C300.358 181.095 300.569 181.574 300.859 182.001C301.138 182.408 301.508 182.74 301.939 182.969C302.431 183.22 302.975 183.344 303.525 183.331C304.18 183.345 304.834 183.257 305.464 183.072C305.952 182.915 306.414 182.685 306.836 182.389L307.456 179.374H304.291L304.731 177.28H310.168L308.835 183.501C308.179 184.085 307.428 184.547 306.616 184.866C305.578 185.277 304.471 185.474 303.358 185.446C302.481 185.462 301.609 185.293 300.799 184.948C300.1 184.636 299.476 184.17 298.974 183.583C298.478 182.984 298.106 182.288 297.881 181.537C297.635 180.724 297.514 179.877 297.521 179.026C297.518 177.869 297.691 176.718 298.034 175.615C298.352 174.568 298.863 173.593 299.54 172.743C300.201 171.916 301.022 171.237 301.952 170.751C302.968 170.237 304.09 169.979 305.224 170.001C306.523 169.922 307.808 170.324 308.842 171.133C309.756 171.963 310.316 173.126 310.401 174.374L308.042 174.763Z" fill="#E7DBD0"/>
<path d="M102.999 484.892L102.18 483.022L109.622 479.612L102.759 475.089L103.839 473.363L112.248 478.895C112.398 478.997 112.519 479.137 112.599 479.303C112.679 479.468 112.714 479.653 112.701 479.837C112.687 480.02 112.625 480.195 112.522 480.345C112.418 480.495 112.278 480.614 112.114 480.689L102.999 484.892Z" fill="#E7DBD0"/>
<path d="M76.0731 455.352C76.091 456.105 75.9548 456.853 75.6733 457.549C75.418 458.144 75.0246 458.666 74.5273 459.07C73.9921 459.484 73.3833 459.788 72.7349 459.964C71.9649 460.169 71.1717 460.267 70.3762 460.257C69.6795 460.258 68.9848 460.183 68.3039 460.032C67.6544 459.895 67.0368 459.631 66.4849 459.254C65.9385 458.869 65.4943 458.351 65.1923 457.747C64.8391 457.017 64.6567 456.214 64.6592 455.4H67.1046C67.1155 455.786 67.2019 456.166 67.3587 456.518C67.5155 456.869 67.7395 457.185 68.0174 457.447C68.7645 457.96 69.659 458.2 70.5561 458.129C71.0206 458.14 71.4839 458.076 71.9287 457.938C72.2726 457.826 72.5903 457.643 72.8615 457.399C73.0965 457.179 73.2769 456.906 73.3879 456.601C73.4975 456.274 73.5515 455.93 73.5478 455.584C73.5448 455.162 73.4014 454.753 73.1413 454.425C72.7666 454 72.2562 453.727 71.7021 453.654L69.9764 453.285C68.9354 453.133 67.9653 452.657 67.1979 451.921C66.596 451.26 66.2749 450.382 66.305 449.479C66.2929 448.775 66.4293 448.077 66.7048 447.432C66.9607 446.858 67.3495 446.357 67.8375 445.972C68.3712 445.569 68.9784 445.279 69.6232 445.12C70.3953 444.928 71.1877 444.837 71.982 444.847C73.2901 444.766 74.586 445.146 75.6533 445.925C76.1067 446.316 76.4745 446.801 76.7328 447.347C76.9911 447.894 77.1341 448.49 77.1525 449.097L74.8271 449.424C74.7844 448.698 74.4749 448.016 73.9609 447.514C73.3446 447.055 72.5883 446.838 71.8287 446.9C71.3317 446.888 70.8356 446.95 70.3562 447.084C70.0109 447.179 69.6886 447.346 69.41 447.575C69.1917 447.758 69.0202 447.992 68.9103 448.258C68.8115 448.507 68.7595 448.773 68.757 449.042C68.7379 449.289 68.7683 449.538 68.8462 449.772C68.9241 450.007 69.0479 450.223 69.2101 450.406C69.626 450.775 70.1376 451.012 70.6827 451.089L72.4084 451.478C73.007 451.612 73.5868 451.823 74.1342 452.105C74.5681 452.321 74.9607 452.614 75.2935 452.971C75.5723 453.283 75.7815 453.653 75.9065 454.056C76.0262 454.477 76.0824 454.914 76.0731 455.352V455.352Z" fill="#E7DBD0"/>
<path d="M77.5244 459.889L80.5561 445.228H82.9815L79.9565 459.889H77.5244Z" fill="#E7DBD0"/>
<path d="M92.1235 459.889L87.506 449.253L85.2872 459.889H82.9551L85.9868 445.228H88.0324L92.6166 455.905L94.8221 445.228H97.1875L94.1624 459.889H92.1235Z" fill="#E7DBD0"/>
<path d="M108.316 450.175C108.252 449.316 107.946 448.494 107.436 447.808C107.148 447.515 106.801 447.29 106.419 447.149C106.036 447.009 105.628 446.957 105.224 446.996C104.508 446.985 103.802 447.169 103.179 447.528C102.571 447.89 102.048 448.384 101.646 448.974C101.206 449.622 100.877 450.342 100.673 451.103C100.443 451.937 100.329 452.801 100.333 453.668C100.328 454.251 100.393 454.833 100.527 455.401C100.637 455.908 100.84 456.39 101.126 456.82C101.398 457.222 101.762 457.55 102.186 457.775C102.677 458.019 103.219 458.138 103.765 458.123C104.682 458.187 105.588 457.889 106.297 457.29C106.913 456.676 107.32 455.875 107.456 455.005H110.082C109.934 455.748 109.692 456.468 109.362 457.147C109.052 457.78 108.624 458.346 108.103 458.812C107.549 459.292 106.908 459.656 106.217 459.883C105.371 460.149 104.49 460.276 103.605 460.258C102.737 460.279 101.875 460.114 101.073 459.773C100.375 459.467 99.7544 459 99.2607 458.409C98.7605 457.813 98.3882 457.115 98.1679 456.362C97.9202 455.531 97.7989 454.666 97.8081 453.798C97.8019 452.639 97.9774 451.488 98.3278 450.387C98.6549 449.348 99.1603 448.378 99.8204 447.521C100.466 446.7 101.271 446.026 102.186 445.543C103.159 445.042 104.235 444.79 105.324 444.806C106.104 444.79 106.881 444.907 107.623 445.154C108.23 445.363 108.787 445.702 109.255 446.15C109.704 446.588 110.05 447.125 110.268 447.719C110.515 448.376 110.667 449.065 110.721 449.766L108.316 450.175Z" fill="#E7DBD0"/>
<path d="M116.077 447.364L115.271 451.266H121.974L121.534 453.422H114.831L113.939 457.747H121.461L120.735 459.882H111.08L114.112 445.222H123.62L123.194 447.357L116.077 447.364Z" fill="#E7DBD0"/>
<path d="M133.809 447.364C133.137 447.33 132.472 447.508 131.903 447.875C131.329 448.354 130.92 449.01 130.737 449.745L128.571 449.438C128.733 448.866 128.956 448.314 129.238 447.793C129.505 447.274 129.871 446.814 130.313 446.44C130.756 446.066 131.267 445.787 131.816 445.617C132.522 445.398 133.258 445.294 133.995 445.31C134.643 445.296 135.288 445.4 135.901 445.617C136.4 445.792 136.856 446.079 137.234 446.456C137.572 446.811 137.832 447.237 137.993 447.705C138.162 448.182 138.247 448.685 138.246 449.192C138.255 449.843 138.133 450.488 137.886 451.088C137.639 451.672 137.304 452.213 136.894 452.692C136.445 453.212 135.954 453.693 135.428 454.131C134.875 454.588 134.282 455.059 133.655 455.536C133.142 455.918 132.629 456.307 132.096 456.696L130.604 457.815H136.76L136.094 459.861H126.766L127.146 458.033L128.078 457.303L129.151 456.485C129.524 456.205 129.897 455.925 130.264 455.639L131.297 454.854L133.056 453.49C133.569 453.088 134.056 452.653 134.515 452.187C134.915 451.786 135.254 451.326 135.521 450.822C135.768 450.355 135.896 449.832 135.894 449.301C135.914 449.028 135.874 448.754 135.779 448.498C135.683 448.242 135.534 448.011 135.341 447.821C134.907 447.471 134.358 447.307 133.809 447.364V447.364Z" fill="#E7DBD0"/>
<path d="M145.696 445.311C146.294 445.301 146.888 445.417 147.441 445.652C147.95 445.876 148.405 446.211 148.774 446.634C149.171 447.096 149.471 447.637 149.654 448.224C149.87 448.914 149.975 449.635 149.967 450.359C149.964 451.071 149.918 451.782 149.827 452.487C149.733 453.239 149.577 453.98 149.36 454.704C149.149 455.432 148.873 456.137 148.534 456.812C148.203 457.461 147.784 458.059 147.288 458.586C146.799 459.099 146.221 459.513 145.582 459.807C144.883 460.118 144.126 460.272 143.364 460.257C142.767 460.268 142.175 460.152 141.625 459.916C141.116 459.692 140.661 459.356 140.292 458.934C139.895 458.472 139.595 457.931 139.412 457.345C139.196 456.648 139.09 455.92 139.099 455.189C139.104 454.483 139.155 453.779 139.252 453.081C139.353 452.334 139.513 451.597 139.732 450.877C139.952 450.149 140.238 449.444 140.585 448.769C140.915 448.118 141.337 447.52 141.838 446.996C142.328 446.487 142.903 446.074 143.537 445.775C144.213 445.455 144.951 445.297 145.696 445.311V445.311ZM145.556 447.357C145.216 447.352 144.879 447.418 144.566 447.551C144.252 447.683 143.967 447.88 143.73 448.128C143.19 448.684 142.76 449.342 142.464 450.066C142.121 450.881 141.873 451.735 141.724 452.61C141.57 453.472 141.489 454.346 141.485 455.223C141.447 455.982 141.621 456.736 141.984 457.399C142.149 457.661 142.379 457.874 142.651 458.014C142.923 458.154 143.226 458.218 143.53 458.197C143.866 458.201 144.2 458.135 144.511 458.005C144.822 457.875 145.105 457.683 145.343 457.44C145.886 456.888 146.319 456.232 146.615 455.509C146.959 454.694 147.207 453.84 147.355 452.965C147.515 452.104 147.597 451.229 147.601 450.352C147.642 449.583 147.466 448.819 147.095 448.149C146.929 447.89 146.699 447.681 146.429 447.543C146.159 447.406 145.857 447.344 145.556 447.364V447.357Z" fill="#E7DBD0"/>
<path d="M153.638 459.889L156.03 448.347L152.898 450.032L151.979 448.265L156.643 445.7H158.868L155.943 459.889H153.638Z" fill="#E7DBD0"/>
<path d="M167.123 445.31C167.722 445.299 168.316 445.415 168.869 445.651C169.378 445.874 169.834 446.209 170.201 446.634C170.607 447.084 170.916 447.616 171.107 448.196C171.324 448.886 171.429 449.607 171.421 450.331C171.416 451.043 171.367 451.754 171.274 452.46C171.18 453.21 171.026 453.952 170.814 454.677C170.601 455.404 170.322 456.11 169.981 456.785C169.655 457.435 169.237 458.032 168.742 458.558C168.252 459.07 167.674 459.484 167.036 459.779C166.337 460.09 165.58 460.244 164.818 460.23C164.219 460.24 163.625 460.124 163.072 459.889C162.563 459.664 162.108 459.329 161.739 458.906C161.342 458.444 161.043 457.903 160.86 457.317C160.643 456.62 160.537 455.892 160.546 455.161C160.551 454.456 160.602 453.751 160.7 453.053C160.8 452.306 160.961 451.569 161.179 450.85C161.4 450.122 161.685 449.416 162.032 448.742C162.362 448.09 162.784 447.493 163.285 446.968C163.774 446.461 164.347 446.048 164.977 445.747C165.652 445.44 166.385 445.291 167.123 445.31V445.31ZM166.983 447.357C166.644 447.353 166.307 447.42 165.994 447.552C165.68 447.684 165.395 447.88 165.157 448.128C164.621 448.685 164.193 449.343 163.898 450.065C163.553 450.881 163.303 451.735 163.152 452.61C162.997 453.472 162.917 454.346 162.912 455.222C162.873 455.983 163.049 456.738 163.418 457.399C163.582 457.66 163.811 457.872 164.082 458.013C164.352 458.153 164.655 458.217 164.957 458.197C165.294 458.2 165.629 458.134 165.941 458.005C166.253 457.875 166.537 457.683 166.776 457.44C167.32 456.888 167.753 456.232 168.049 455.509C168.393 454.694 168.641 453.839 168.789 452.964C168.944 452.102 169.024 451.228 169.029 450.352C169.071 449.583 168.897 448.819 168.529 448.148C168.362 447.889 168.131 447.68 167.859 447.542C167.588 447.404 167.285 447.343 166.983 447.364V447.357Z" fill="#E7DBD0"/>
<path d="M123.215 480.579L123.162 478.533C159.982 477.509 188.827 466.315 188.827 453.053C188.827 446.518 181.364 440.016 168.351 435.227C154.825 430.241 136.821 427.498 117.658 427.498C98.4947 427.498 80.4909 430.227 66.9648 435.227C53.9717 440.009 46.489 446.518 46.489 453.053C46.489 466.24 75.1404 477.421 111.734 478.526L111.681 480.572C73.3747 479.426 44.4901 467.611 44.4901 453.06C44.4901 437.588 76.633 425.458 117.658 425.458C158.683 425.458 190.825 437.588 190.825 453.06C190.825 467.672 161.761 479.501 123.215 480.579Z" fill="#E7DBD0"/>
<path d="M333.669 449.131C333.69 449.95 333.54 450.764 333.229 451.519C332.948 452.169 332.51 452.735 331.956 453.163C331.358 453.613 330.679 453.938 329.958 454.118C329.085 454.334 328.19 454.437 327.292 454.425H324.627L323.508 459.882H321.162L324.187 445.222H328.985C329.731 445.2 330.474 445.32 331.177 445.577C331.716 445.786 332.209 446.101 332.629 446.505C332.991 446.855 333.268 447.287 333.436 447.767C333.589 448.205 333.667 448.666 333.669 449.131V449.131ZM327.572 452.351C328.071 452.354 328.569 452.306 329.058 452.208C329.477 452.127 329.876 451.96 330.231 451.717C330.562 451.479 330.825 451.153 330.99 450.775C331.185 450.301 331.278 449.789 331.264 449.274C331.264 449.006 331.217 448.74 331.124 448.49C331.025 448.24 330.864 448.021 330.657 447.855C330.414 447.661 330.135 447.517 329.838 447.433C329.431 447.322 329.012 447.271 328.592 447.282H326.126L325.087 452.351H327.572Z" fill="#E7DBD0"/>
<path d="M342.405 444.86C343.222 444.847 344.034 444.995 344.797 445.297C345.474 445.574 346.086 445.998 346.589 446.539C347.089 447.098 347.474 447.754 347.722 448.469C347.997 449.276 348.132 450.125 348.122 450.98C348.12 452.136 347.952 453.285 347.622 454.391C347.306 455.465 346.8 456.471 346.129 457.358C345.456 458.211 344.613 458.909 343.657 459.405C342.606 459.952 341.438 460.224 340.259 460.196C339.441 460.21 338.628 460.059 337.867 459.753C337.177 459.481 336.554 459.057 336.041 458.511C335.525 457.96 335.132 457.302 334.889 456.58C334.608 455.778 334.47 454.93 334.482 454.077C334.482 452.919 334.66 451.768 335.009 450.666C335.337 449.586 335.856 448.578 336.541 447.692C337.215 446.821 338.062 446.107 339.026 445.597C340.077 445.072 341.237 444.819 342.405 444.86V444.86ZM342.225 446.996C341.422 446.978 340.63 447.19 339.939 447.61C339.285 448.021 338.728 448.576 338.307 449.233C337.862 449.927 337.529 450.689 337.321 451.491C337.103 452.314 336.994 453.163 336.994 454.015C336.938 455.082 337.239 456.136 337.847 457.003C338.154 457.385 338.546 457.686 338.99 457.88C339.434 458.075 339.917 458.158 340.399 458.122C341.196 458.139 341.981 457.926 342.665 457.508C343.322 457.099 343.882 456.544 344.304 455.885C344.744 455.199 345.075 454.446 345.283 453.654C345.503 452.824 345.615 451.969 345.616 451.109C345.622 450.542 345.55 449.978 345.403 449.431C345.271 448.961 345.044 448.524 344.737 448.149C344.45 447.792 344.088 447.508 343.677 447.316C343.221 447.105 342.726 446.996 342.225 446.996V446.996Z" fill="#E7DBD0"/>
<path d="M351.24 459.89H348.848L351.879 445.229H356.51C357.286 445.208 358.059 445.326 358.796 445.577C359.349 445.771 359.859 446.077 360.295 446.478C360.66 446.832 360.938 447.269 361.108 447.753C361.266 448.223 361.347 448.716 361.348 449.213C361.406 450.247 361.096 451.268 360.475 452.085C359.84 452.825 359.005 453.354 358.076 453.607L359.802 459.89H357.237L355.811 454.077C355.677 454.077 355.537 454.077 355.398 454.077H352.439L351.24 459.89ZM355.591 452.003C356.038 452.008 356.485 451.964 356.923 451.874C357.302 451.799 357.661 451.643 357.976 451.417C358.27 451.2 358.5 450.905 358.642 450.564C358.814 450.15 358.895 449.703 358.882 449.254C358.884 448.998 358.841 448.744 358.756 448.504C358.665 448.259 358.514 448.042 358.316 447.876C358.07 447.679 357.79 447.533 357.49 447.446C357.076 447.327 356.647 447.272 356.217 447.283H353.812L352.846 452.003H355.591Z" fill="#E7DBD0"/>
<path d="M377.065 455.352C377.083 456.105 376.947 456.853 376.666 457.549C376.413 458.143 376.021 458.666 375.526 459.07C374.989 459.484 374.378 459.788 373.727 459.964C372.959 460.169 372.168 460.268 371.375 460.257C370.676 460.258 369.979 460.183 369.296 460.032C368.649 459.893 368.034 459.629 367.484 459.254C366.937 458.875 366.493 458.361 366.191 457.76C365.835 457.032 365.652 456.228 365.658 455.413H368.103C368.114 455.8 368.201 456.18 368.358 456.531C368.514 456.883 368.738 457.199 369.016 457.46C369.762 457.977 370.657 458.218 371.555 458.142C372.019 458.153 372.483 458.089 372.928 457.951C373.271 457.838 373.588 457.655 373.86 457.412C374.096 457.194 374.274 456.92 374.38 456.614C374.49 456.287 374.544 455.943 374.54 455.598C374.536 455.176 374.396 454.768 374.14 454.438C373.764 454.012 373.251 453.739 372.694 453.667L370.969 453.299C369.93 453.145 368.963 452.669 368.197 451.934C367.595 451.273 367.274 450.395 367.304 449.492C367.292 448.788 367.428 448.09 367.704 447.445C367.96 446.872 368.348 446.371 368.836 445.986C369.369 445.58 369.976 445.29 370.622 445.133C371.392 444.942 372.182 444.85 372.974 444.86C374.282 444.778 375.579 445.158 376.646 445.938C377.101 446.328 377.471 446.812 377.73 447.359C377.99 447.905 378.133 448.502 378.151 449.11L375.826 449.437C375.784 448.714 375.48 448.033 374.973 447.527C374.354 447.068 373.596 446.85 372.834 446.913C372.337 446.901 371.841 446.964 371.362 447.098C371.019 447.194 370.699 447.361 370.422 447.589C370.202 447.771 370.028 448.005 369.916 448.271C369.819 448.521 369.769 448.787 369.769 449.055C369.749 449.303 369.778 449.551 369.856 449.786C369.934 450.021 370.059 450.237 370.222 450.42C370.637 450.79 371.149 451.027 371.695 451.102L373.421 451.491C374.017 451.625 374.595 451.836 375.14 452.118C375.567 452.339 375.952 452.634 376.279 452.992C376.556 453.304 376.763 453.674 376.885 454.076C377.008 454.49 377.068 454.92 377.065 455.352V455.352Z" fill="#E7DBD0"/>
<path d="M384.236 460.257C383.547 460.267 382.86 460.175 382.197 459.984C381.625 459.814 381.091 459.531 380.624 459.152C380.178 458.774 379.826 458.292 379.598 457.746C379.346 457.112 379.223 456.432 379.238 455.748C379.24 455.146 379.307 454.547 379.438 453.96L381.244 445.235H383.649L381.844 454.022C381.715 454.518 381.648 455.029 381.644 455.543C381.609 455.901 381.651 456.263 381.766 456.604C381.881 456.944 382.066 457.255 382.31 457.515C382.903 457.97 383.637 458.188 384.376 458.129C384.879 458.144 385.379 458.056 385.848 457.869C386.253 457.702 386.613 457.441 386.901 457.105C387.217 456.725 387.465 456.291 387.634 455.823C387.846 455.235 388.017 454.634 388.147 454.022L389.973 445.235H392.398L390.592 454.022C390.404 454.993 390.112 455.941 389.72 456.846C389.398 457.572 388.946 458.229 388.387 458.783C387.873 459.292 387.254 459.675 386.575 459.902C385.819 460.149 385.029 460.269 384.236 460.257Z" fill="#E7DBD0"/>
<path d="M405.851 445.228L408.283 459.889H405.784L405.225 456.15H399.654L397.549 459.889H394.943L403.446 445.228H405.851ZM400.74 454.097H404.971L404.085 448.059L400.74 454.097Z" fill="#E7DBD0"/>
<path d="M416.372 447.384L413.78 459.889H411.355L413.94 447.384H409.409L409.849 445.228H421.323L420.876 447.384H416.372Z" fill="#E7DBD0"/>
<path d="M424.866 447.364L424.06 451.266H430.763L430.317 453.422H423.62L422.721 457.747H430.237L429.517 459.882H419.869L422.901 445.222H432.436L432.009 447.357L424.866 447.364Z" fill="#E7DBD0"/>
<path d="M440.877 459.889L436.26 449.253L434.054 459.889H431.709L434.741 445.228H436.786L441.357 455.905L443.563 445.228H445.928L442.903 459.889H440.877Z" fill="#E7DBD0"/>
<path d="M457.09 450.174C457.027 449.314 456.719 448.491 456.204 447.807C455.918 447.513 455.571 447.288 455.19 447.148C454.809 447.007 454.401 446.955 453.998 446.995C453.282 446.984 452.576 447.168 451.953 447.528C451.345 447.89 450.822 448.383 450.42 448.974C449.98 449.622 449.651 450.341 449.447 451.102C449.214 451.932 449.095 452.79 449.094 453.654C449.089 454.237 449.152 454.818 449.281 455.386C449.397 455.893 449.602 456.374 449.887 456.805C450.159 457.207 450.522 457.535 450.946 457.76C451.438 458.005 451.979 458.124 452.526 458.108C453.442 458.173 454.349 457.875 455.058 457.276C455.672 456.661 456.076 455.86 456.21 454.991H458.876C458.728 455.735 458.484 456.455 458.149 457.133C457.844 457.767 457.418 458.333 456.897 458.797C456.343 459.277 455.702 459.641 455.011 459.868C454.165 460.135 453.284 460.262 452.399 460.244C451.531 460.265 450.669 460.1 449.867 459.759C449.168 459.453 448.548 458.986 448.055 458.395C447.554 457.798 447.182 457.101 446.962 456.348C446.714 455.517 446.593 454.652 446.602 453.783C446.596 452.625 446.771 451.473 447.122 450.372C447.449 449.334 447.954 448.364 448.614 447.507C449.258 446.685 450.064 446.011 450.98 445.529C451.953 445.028 453.029 444.775 454.118 444.792C454.898 444.775 455.675 444.893 456.417 445.14C457.024 445.349 457.581 445.688 458.049 446.136C458.498 446.574 458.844 447.11 459.062 447.705C459.305 448.362 459.458 449.051 459.515 449.752L457.09 450.174Z" fill="#E7DBD0"/>
<path d="M459.833 459.888L462.865 445.228H465.29L462.258 459.888H459.833Z" fill="#E7DBD0"/>
<path d="M473.84 444.86C474.658 444.846 475.47 444.995 476.232 445.297C476.91 445.574 477.521 445.997 478.025 446.538C478.525 447.097 478.91 447.754 479.157 448.469C479.432 449.275 479.568 450.125 479.557 450.979C479.556 452.135 479.387 453.285 479.057 454.39C478.742 455.465 478.236 456.471 477.565 457.358C476.892 458.209 476.052 458.906 475.1 459.404C474.045 459.95 472.876 460.222 471.695 460.195C470.877 460.21 470.064 460.059 469.303 459.752C468.612 459.48 467.989 459.056 467.477 458.51C466.961 457.96 466.568 457.301 466.324 456.58C466.043 455.777 465.906 454.929 465.918 454.076C465.917 452.918 466.095 451.767 466.444 450.665C466.772 449.586 467.292 448.578 467.977 447.691C468.65 446.82 469.498 446.106 470.462 445.597C471.512 445.072 472.672 444.819 473.84 444.86V444.86ZM473.66 446.995C472.857 446.977 472.066 447.19 471.375 447.609C470.721 448.021 470.163 448.575 469.742 449.233C469.297 449.926 468.964 450.689 468.756 451.491C468.539 452.314 468.429 453.162 468.43 454.015C468.373 455.081 468.674 456.135 469.283 457.003C469.59 457.384 469.982 457.685 470.426 457.88C470.87 458.074 471.353 458.157 471.835 458.122C472.631 458.139 473.416 457.926 474.1 457.508C474.758 457.098 475.318 456.543 475.739 455.884C476.182 455.19 476.513 454.428 476.719 453.626C476.939 452.797 477.051 451.941 477.052 451.081C477.057 450.515 476.985 449.95 476.839 449.403C476.706 448.933 476.479 448.496 476.172 448.121C475.885 447.765 475.523 447.48 475.113 447.288C474.654 447.087 474.159 446.987 473.66 446.995V446.995ZM472.261 444.014L475.266 441.162H478.071L474.526 444.014H472.261Z" fill="#E7DBD0"/>
<path d="M489.451 459.889L484.84 449.253L482.634 459.889H480.282L483.314 445.228H485.36L489.93 455.905L492.136 445.228H494.508L491.476 459.889H489.451Z" fill="#E7DBD0"/>
<path d="M237.28 453.422L236.947 454.432C236.763 454.418 236.577 454.444 236.403 454.51C236.23 454.576 236.072 454.68 235.941 454.814C235.649 455.224 235.437 455.687 235.315 456.178L234.242 459.794L232.963 458.962C232.239 459.32 231.488 459.619 230.717 459.855C229.935 460.083 229.125 460.194 228.312 460.183C227.182 460.224 226.063 459.943 225.08 459.371C224.256 458.866 223.599 458.12 223.195 457.229C222.793 456.327 222.589 455.347 222.595 454.357C222.601 453.161 222.839 451.978 223.295 450.878C223.759 449.725 224.418 448.666 225.24 447.746C226.057 446.822 227.041 446.069 228.139 445.529C229.215 444.989 230.398 444.709 231.597 444.711C233.382 444.711 234.642 445.352 235.388 446.628C235.801 446.187 236.105 445.651 236.274 445.065H237.28L236.174 450.209H235.208C235.231 449.348 235.089 448.49 234.788 447.685C234.577 447.084 234.182 446.569 233.663 446.217C233.143 445.864 232.526 445.692 231.903 445.727C230.967 445.726 230.06 446.053 229.331 446.655C228.529 447.31 227.865 448.124 227.379 449.049C226.839 450.046 226.427 451.11 226.153 452.215C225.879 453.245 225.734 454.306 225.72 455.373C225.724 455.908 225.796 456.44 225.933 456.956C226.083 457.517 226.388 458.022 226.813 458.409C227.349 458.866 228.035 459.096 228.732 459.05C229.497 459.048 230.248 458.841 230.91 458.45C231.265 458.244 231.573 457.965 231.816 457.63C232.06 457.295 232.232 456.912 232.323 456.506L232.43 456.096C232.492 455.9 232.528 455.696 232.536 455.489C232.536 454.807 232.063 454.466 231.11 454.466L231.424 453.456L237.28 453.422Z" fill="#E7DBD0"/>
<path d="M252.671 448.708C252.663 449.131 252.589 449.551 252.451 449.95C252.291 450.427 252.034 450.864 251.698 451.232C251.274 451.698 250.755 452.064 250.179 452.303C249.394 452.63 248.56 452.817 247.713 452.856C248.057 453.131 248.35 453.466 248.58 453.845C248.881 454.435 249.12 455.058 249.293 455.7C249.446 456.225 249.631 456.74 249.846 457.242C250.028 457.64 250.297 457.99 250.632 458.265C251.05 458.589 251.544 458.794 252.064 458.859L251.765 459.869H248.013C247.793 459.553 247.606 459.214 247.453 458.859C247.274 458.456 247 457.72 246.627 456.649L246.188 455.359C246.037 454.876 245.859 454.402 245.654 453.94C245.523 453.66 245.302 453.433 245.028 453.299C244.607 453.118 244.151 453.038 243.695 453.067H243.082L241.95 456.833C241.844 457.138 241.779 457.457 241.757 457.781C241.734 457.968 241.774 458.157 241.87 458.318C241.965 458.479 242.111 458.602 242.283 458.668C242.713 458.808 243.164 458.873 243.616 458.859L243.302 459.869H236.699L236.999 458.859C237.318 458.873 237.637 458.824 237.939 458.716C238.169 458.613 238.362 458.439 238.492 458.218C238.673 457.894 238.812 457.548 238.905 457.188L241.677 447.848C241.775 447.569 241.84 447.278 241.87 446.982C241.882 446.828 241.852 446.673 241.784 446.534C241.716 446.396 241.612 446.279 241.483 446.198C241.223 446.033 240.923 445.947 240.617 445.952H240.197L240.484 444.942H247.4C248.031 444.933 248.661 444.974 249.286 445.065C249.788 445.15 250.274 445.316 250.725 445.556C251.285 445.836 251.764 446.259 252.118 446.784C252.495 447.35 252.689 448.023 252.671 448.708V448.708ZM249.646 448.319C249.646 447.337 249.332 446.709 248.706 446.436C247.995 446.153 247.237 446.017 246.474 446.034H245.141L243.376 451.976H244.535C246.148 451.976 247.26 451.798 247.867 451.437C248.43 451.123 248.893 450.649 249.199 450.072C249.49 449.536 249.644 448.933 249.646 448.319V448.319Z" fill="#E7DBD0"/>
<path d="M266.779 458.859L266.492 459.869H259.862L260.162 458.859C260.597 458.878 261.031 458.811 261.441 458.661C261.596 458.595 261.735 458.497 261.85 458.372C261.965 458.248 262.052 458.1 262.108 457.938C262.255 457.448 262.321 456.936 262.301 456.424V454.554H257.717L256.151 456.901C255.861 457.264 255.664 457.696 255.578 458.156C255.578 458.627 256.018 458.839 256.911 458.839H257.524L257.217 459.848H251.993L252.306 458.839C252.87 458.77 253.393 458.502 253.786 458.081C254.385 457.489 254.923 456.835 255.391 456.13L263.294 444.656H265.166L265.02 457.099C265 457.472 265.055 457.846 265.179 458.197C265.231 458.313 265.304 458.417 265.396 458.503C265.488 458.588 265.595 458.654 265.713 458.695C266.057 458.81 266.417 458.865 266.779 458.859V458.859ZM262.394 447.692L258.396 453.545H262.261L262.394 447.692Z" fill="#E7DBD0"/>
<path d="M282.516 445.031L281.436 450.127H280.404C280.404 450.072 280.404 450.018 280.404 449.977C280.407 449.92 280.407 449.863 280.404 449.806C280.462 448.875 280.244 447.947 279.777 447.146C279.46 446.607 278.981 446.188 278.411 445.952C277.984 445.792 277.534 445.705 277.079 445.693C276.215 445.703 275.382 446.024 274.727 446.6C273.948 447.26 273.301 448.069 272.821 448.981C272.272 449.989 271.849 451.064 271.562 452.18C271.277 453.215 271.125 454.284 271.109 455.359C271.102 455.978 271.203 456.592 271.408 457.174C271.585 457.711 271.908 458.185 272.341 458.538C272.79 458.889 273.343 459.07 273.907 459.05C274.571 459.029 275.222 458.856 275.813 458.545C276.53 458.187 277.178 457.7 277.725 457.106C278.327 456.454 278.8 455.69 279.118 454.854H280.151L278.765 459.793H277.852C277.888 459.543 277.906 459.29 277.905 459.036C277.907 458.785 277.889 458.534 277.852 458.286C277.329 458.856 276.705 459.319 276.013 459.65C275.275 460.013 274.466 460.199 273.647 460.196C272.643 460.208 271.655 459.939 270.789 459.418C269.949 458.907 269.258 458.174 268.79 457.297C268.304 456.402 268.054 455.393 268.064 454.37C268.06 453.089 268.322 451.822 268.83 450.652C269.325 449.5 270.015 448.447 270.869 447.541C271.678 446.694 272.628 446.001 273.674 445.495C274.623 445.02 275.663 444.766 276.719 444.751C277.367 444.737 278.01 444.858 278.611 445.106C279.071 445.286 279.499 445.542 279.877 445.863C280.167 446.123 280.435 446.409 280.677 446.716C281.082 446.252 281.382 445.702 281.556 445.106L282.516 445.031Z" fill="#E7DBD0"/>
<path d="M290.857 444.942L290.544 445.952C290.289 445.954 290.037 446.019 289.811 446.143C289.613 446.266 289.451 446.443 289.345 446.654C289.189 446.966 289.064 447.293 288.972 447.63L286.24 456.833C286.132 457.145 286.067 457.471 286.047 457.801C286.036 457.966 286.073 458.131 286.152 458.275C286.231 458.419 286.35 458.537 286.493 458.613C286.816 458.783 287.176 458.867 287.539 458.859L287.266 459.868H281.183L281.496 458.859C281.7 458.88 281.906 458.852 282.097 458.776C282.288 458.7 282.459 458.579 282.595 458.422C282.849 458.046 283.038 457.628 283.155 457.187L285.907 447.991C286.007 447.677 286.072 447.352 286.1 447.023C286.122 446.86 286.097 446.694 286.027 446.546C285.957 446.397 285.845 446.274 285.707 446.19C285.434 446.06 285.141 445.979 284.841 445.952L285.154 444.942H290.857Z" fill="#E7DBD0"/>
<path d="M302.911 458.859L302.625 459.869H295.995L296.301 458.859C296.736 458.877 297.17 458.809 297.581 458.661C297.735 458.595 297.874 458.497 297.989 458.372C298.104 458.248 298.192 458.1 298.247 457.938C298.395 457.448 298.46 456.936 298.44 456.424V454.554H293.843L292.27 456.901C291.981 457.264 291.786 457.696 291.704 458.156C291.704 458.627 292.144 458.839 293.036 458.839H293.649L293.35 459.848H288.126L288.439 458.839C289.003 458.77 289.526 458.502 289.918 458.081C290.516 457.488 291.054 456.834 291.524 456.13L299.426 444.656H301.299L301.145 457.099C301.126 457.472 301.181 457.846 301.305 458.197C301.358 458.313 301.433 458.417 301.526 458.503C301.618 458.588 301.727 458.654 301.845 458.695C302.189 458.81 302.549 458.865 302.911 458.859ZM298.507 447.692L294.509 453.545H298.374L298.507 447.692Z" fill="#E7DBD0"/>
<path d="M316.084 444.942L315.418 449.411H314.385C314.311 448.88 314.191 448.357 314.025 447.849C313.831 447.301 313.511 446.81 313.093 446.416C312.576 445.948 311.903 445.704 311.214 445.734C310.629 445.713 310.055 445.903 309.594 446.273C309.381 446.448 309.209 446.672 309.094 446.926C308.978 447.181 308.921 447.459 308.928 447.739C308.927 448.146 309.031 448.546 309.228 448.899C309.446 449.298 309.717 449.663 310.034 449.984C310.381 450.345 310.787 450.734 311.26 451.143C312.03 451.783 312.722 452.516 313.319 453.326C313.789 454.008 314.034 454.825 314.019 455.66C314.014 456.411 313.817 457.147 313.446 457.795C313.051 458.497 312.481 459.078 311.793 459.48C311.028 459.922 310.16 460.146 309.281 460.128C308.863 460.124 308.447 460.067 308.042 459.957C307.621 459.844 307.219 459.667 306.849 459.432C306.436 459.169 306.055 458.855 305.717 458.497C305.437 458.876 305.212 459.294 305.05 459.739H304.044L304.71 454.534H305.723C305.729 455.259 305.859 455.977 306.11 456.656C306.297 457.186 306.603 457.665 307.002 458.054C307.339 458.381 307.735 458.636 308.169 458.804C308.547 458.954 308.949 459.032 309.355 459.036C309.752 459.046 310.144 458.942 310.487 458.736C310.816 458.546 311.088 458.268 311.274 457.931C311.465 457.591 311.564 457.205 311.56 456.812C311.568 456.442 311.49 456.075 311.334 455.741C311.156 455.399 310.931 455.084 310.667 454.807C310.374 454.493 309.868 453.988 309.148 453.292C308.414 452.627 307.767 451.868 307.222 451.034C306.872 450.442 306.686 449.762 306.683 449.07C306.683 448.299 306.898 447.544 307.302 446.893C307.709 446.215 308.277 445.654 308.955 445.263C309.623 444.866 310.381 444.657 311.154 444.656C311.752 444.665 312.342 444.795 312.891 445.039C313.44 445.282 313.936 445.634 314.352 446.075C314.392 446.013 314.452 445.925 314.532 445.822C314.612 445.72 314.692 445.604 314.772 445.481C314.852 445.359 314.938 445.161 315.052 444.922L316.084 444.942Z" fill="#E7DBD0"/>
<path d="M509.415 444.622C507.833 444.622 506.287 445.102 504.973 446.002C503.658 446.901 502.633 448.18 502.028 449.675C501.422 451.171 501.264 452.817 501.573 454.405C501.881 455.993 502.643 457.452 503.761 458.597C504.879 459.742 506.304 460.521 507.855 460.837C509.406 461.153 511.013 460.991 512.475 460.371C513.936 459.752 515.184 458.702 516.063 457.356C516.941 456.01 517.41 454.427 517.41 452.808C517.41 450.637 516.568 448.555 515.069 447.02C513.569 445.484 511.535 444.622 509.415 444.622ZM509.415 447.794C509.56 447.771 509.709 447.782 509.85 447.828C509.99 447.873 510.118 447.952 510.224 448.057C510.329 448.163 510.409 448.292 510.457 448.435C510.505 448.577 510.52 448.729 510.501 448.879C510.493 449.107 510.473 449.335 510.441 449.561L509.775 454.377H509.002L508.395 449.561C508.355 449.304 508.333 449.044 508.329 448.783C508.302 448.122 508.675 447.794 509.415 447.794ZM510.294 457.461C510.09 457.666 509.822 457.791 509.537 457.817C509.252 457.843 508.967 457.767 508.731 457.602C508.494 457.437 508.321 457.194 508.239 456.913C508.158 456.632 508.175 456.331 508.286 456.061C508.397 455.791 508.596 455.569 508.849 455.432C509.102 455.295 509.393 455.252 509.673 455.31C509.954 455.368 510.206 455.523 510.387 455.75C510.568 455.977 510.667 456.26 510.667 456.553C510.669 456.723 510.637 456.891 510.573 457.047C510.509 457.203 510.414 457.344 510.294 457.461V457.461Z" fill="#E7DBD0"/>
<path d="M207.689 444.622C206.108 444.622 204.562 445.102 203.247 446.002C201.932 446.901 200.907 448.18 200.302 449.675C199.697 451.171 199.539 452.817 199.847 454.405C200.156 455.993 200.917 457.452 202.035 458.597C203.154 459.742 204.578 460.521 206.129 460.837C207.68 461.153 209.288 460.991 210.749 460.371C212.21 459.752 213.459 458.702 214.337 457.356C215.216 456.01 215.685 454.427 215.685 452.808C215.685 450.637 214.842 448.555 213.343 447.02C211.844 445.484 209.81 444.622 207.689 444.622ZM207.689 457.843C207.543 457.866 207.393 457.855 207.252 457.809C207.111 457.763 206.982 457.683 206.876 457.577C206.77 457.471 206.689 457.342 206.641 457.198C206.592 457.055 206.577 456.902 206.596 456.751C206.605 456.523 206.627 456.295 206.663 456.069L207.329 451.253H208.102L208.769 456.124C208.804 456.381 208.824 456.641 208.829 456.901C208.795 457.515 208.422 457.843 207.689 457.843ZM208.555 449.984C208.441 450.106 208.304 450.204 208.151 450.269C207.999 450.335 207.835 450.368 207.669 450.366C207.335 450.366 207.015 450.23 206.779 449.988C206.543 449.747 206.41 449.419 206.41 449.077C206.433 448.752 206.575 448.448 206.808 448.226C207.041 448.004 207.348 447.881 207.666 447.881C207.984 447.881 208.29 448.004 208.523 448.226C208.756 448.448 208.899 448.752 208.922 449.077C208.923 449.245 208.892 449.413 208.829 449.569C208.766 449.724 208.673 449.866 208.555 449.984Z" fill="#E7DBD0"/>
<path d="M288.76 93.1455V98.8622C285.93 100.11 282.897 100.805 279.818 100.909C276.684 100.947 273.583 100.247 270.756 98.8622V94.4417C269.856 93.4457 268.844 92.2723 267.711 90.9352C266.199 87.1795 265.427 83.1548 265.439 79.0925V77.2028C265.126 76.3404 264.944 75.4339 264.899 74.515C264.821 73.5423 265.088 72.5733 265.652 71.7863C265.937 71.489 266.282 71.2596 266.663 71.1146C267.044 70.9695 267.452 70.9124 267.858 70.9472C268.46 70.9918 269.055 71.1109 269.63 71.3019C269.365 70.4717 269.208 69.6092 269.163 68.7369C269.119 68.1522 269.189 67.5644 269.367 67.0072C269.545 66.45 269.829 65.9343 270.203 65.4897C270.61 65.1114 271.088 64.8219 271.609 64.639C272.129 64.456 272.68 64.3834 273.228 64.4255C274.405 64.4255 275.516 65.1486 276.56 66.5948C276.56 65.9126 276.52 65.3942 276.52 64.9985C276.52 64.6028 276.52 64.214 276.52 63.6751L272.215 47.0707C271.349 43.7825 270.905 41.6791 270.883 40.7604C270.837 40.1928 270.909 39.6216 271.094 39.0844C271.279 38.5471 271.572 38.0559 271.955 37.6429C272.858 36.8764 274.017 36.4996 275.187 36.5923C277.408 36.5923 279.052 38.8935 280.118 43.496L284.389 61.4512L288.746 47.8074C290.421 42.5955 292.3 39.9896 294.383 39.9896C294.86 39.9817 295.334 40.0725 295.776 40.2565C296.218 40.4406 296.619 40.7141 296.955 41.0606C297.299 41.3961 297.57 41.801 297.752 42.2496C297.935 42.6982 298.024 43.1807 298.015 43.6666C298.015 44.7444 297.582 46.9683 296.682 50.3383L292.844 65.4215C293.082 68.0131 293.185 70.616 293.151 73.2189L293.191 74.9107C293.927 76.8645 294.413 78.9075 294.637 80.989C293.128 85.2536 291.157 89.3314 288.76 93.1455V93.1455ZM272.069 77.7145L271.069 75.3473C270.35 73.6077 269.497 72.7413 268.524 72.7413C268.055 72.7068 267.591 72.861 267.231 73.1711C267.071 73.3557 266.949 73.572 266.873 73.8066C266.798 74.0413 266.77 74.2894 266.791 74.5355C266.934 75.5505 267.233 76.536 267.678 77.4552L269.137 81.0094C269.91 82.8786 270.772 83.8132 271.722 83.8132C271.95 83.831 272.179 83.7933 272.389 83.7032C272.6 83.6131 272.787 83.4731 272.935 83.2948C273.235 82.8597 273.378 82.3319 273.341 81.8008C273.341 80.9344 272.915 79.5837 272.069 77.7145V77.7145ZM287.027 92.3542C289.124 89.1796 290.844 85.7605 292.151 82.1691C292.278 81.828 292.471 81.3437 292.731 80.7093C292.551 80.0271 292.418 79.57 292.344 79.2562C291.209 74.8004 289.165 70.6412 286.348 67.0519L278.518 65.9877C278.518 69.6488 280.793 71.5975 285.342 71.834C285.288 72.6981 285.262 73.4076 285.262 73.9624C285.279 75.8308 285.46 77.6937 285.801 79.5291H283.916C283.554 77.9112 283.373 76.2565 283.376 74.5969V73.7646C281.751 73.4732 280.209 72.8136 278.865 71.834L280.371 75.6202C280.791 76.6075 281.039 77.6627 281.104 78.7377C281.188 79.9077 280.844 81.068 280.138 81.9918C279.754 82.3776 279.293 82.6741 278.787 82.8613C278.281 83.0485 277.742 83.1219 277.206 83.0765C276.361 83.0151 275.549 82.7152 274.86 82.2101C274.79 83.2133 274.413 84.1683 273.781 84.9388C273.485 85.2455 273.129 85.4848 272.736 85.6411C272.343 85.7974 271.923 85.8673 271.502 85.8461C270.325 85.8461 269.299 85.1094 268.424 83.6358L267.571 82.2169C267.853 84.4717 268.298 86.7018 268.904 88.8887C268.984 89.1274 269.084 89.4549 269.21 89.871L272.755 94.0187V97.5524C275.11 98.4113 277.585 98.8721 280.084 98.9168C282.47 98.8857 284.832 98.4238 287.061 97.5524L287.027 92.3542ZM277.499 73.826L275.907 69.8079C275.007 67.5021 274.074 66.3492 273.121 66.3492C272.838 66.3294 272.554 66.3735 272.289 66.4784C272.024 66.5833 271.785 66.7465 271.589 66.9564C271.207 67.4822 271.022 68.1311 271.069 68.7847C271.127 70.1215 271.442 71.4336 271.995 72.6458L273.508 76.3842C274.8 79.5086 276.046 81.064 277.266 81.064C277.53 81.0839 277.796 81.0476 278.046 80.9571C278.296 80.8667 278.525 80.7243 278.718 80.5387C279.066 80.1015 279.237 79.5454 279.198 78.9833C279.185 78.1647 278.632 76.4524 277.499 73.826V73.826ZM282.763 62.6382L278.225 43.6597C277.404 40.1578 276.34 38.4069 275.034 38.4069C274.73 38.3822 274.425 38.4222 274.137 38.5243C273.849 38.6265 273.585 38.7886 273.361 39.0004C272.955 39.4937 272.754 40.1306 272.802 40.7741C272.828 41.4032 272.931 42.0265 273.108 42.6296C273.188 42.9434 273.288 43.38 273.415 43.9326C273.594 44.6967 273.734 45.2629 273.841 45.6313L278.598 64.0503L287.26 65.326C288.811 67.086 290.133 69.0442 291.192 71.1518V64.8962L294.963 49.738C295.736 46.6545 296.129 44.6353 296.129 43.6597C296.147 43.4275 296.119 43.1938 296.046 42.9733C295.972 42.7527 295.856 42.5498 295.703 42.3772C295.328 42.0662 294.85 41.917 294.37 41.9611C294.027 41.9582 293.69 42.0514 293.395 42.2305C293.101 42.4097 292.859 42.668 292.698 42.9775C291.921 44.5904 291.279 46.2677 290.779 47.9916L285.788 62.9997L282.763 62.6382Z" fill="#E7DBD0"/>
<path d="M169.482 383.123C168.849 382.396 168.068 381.819 167.195 381.434C166.321 381.049 165.376 380.864 164.425 380.892C161.626 380.892 158.242 382.993 154.377 387.134L143.496 398.731H128.597C127.804 398.731 126.472 398.629 126.472 397.974V397.612C126.452 397.196 126.333 396.792 126.123 396.435C125.914 396.078 125.622 395.779 125.272 395.566C124.46 395.027 123.508 394.754 122.541 394.781C119.669 394.781 118.21 395.743 118.21 397.646V398.178C118.21 398.547 117.437 398.765 116.137 398.765H103.424L114.145 387.427C116.93 384.494 119.476 383.007 121.774 383.007C122.359 382.992 122.941 383.098 123.486 383.317C124.031 383.536 124.527 383.864 124.946 384.282C125.37 384.671 125.708 385.147 125.938 385.68C126.168 386.213 126.284 386.79 126.279 387.373C126.235 387.981 126.102 388.579 125.885 389.146L125.672 389.828C125.606 390.038 125.572 390.257 125.572 390.477C125.556 390.675 125.582 390.874 125.649 391.061C125.716 391.248 125.822 391.418 125.96 391.558C126.098 391.698 126.264 391.806 126.447 391.874C126.63 391.942 126.825 391.968 127.018 391.95C128.044 391.95 128.564 390.872 128.564 388.737C128.634 386.671 127.944 384.653 126.632 383.082C126.019 382.359 125.258 381.783 124.404 381.396C123.55 381.008 122.622 380.817 121.688 380.837C119.069 380.837 116.177 382.468 113.099 385.688L100.439 398.942V399.079C100.409 400.497 100.653 401.907 101.156 403.229C101.659 404.55 102.411 405.757 103.371 406.781C104.286 407.794 105.399 408.598 106.638 409.141C107.876 409.684 109.213 409.953 110.56 409.932C113.432 409.932 115.724 409.066 117.377 407.347C119.029 405.628 120.135 402.974 120.708 399.406V399.236L120.595 399.113C120.332 398.873 120.169 398.538 120.142 398.178C120.142 397.585 120.382 396.814 122.434 396.814C123.017 396.771 123.599 396.898 124.113 397.182C124.271 397.284 124.399 397.428 124.483 397.599C124.566 397.769 124.602 397.961 124.586 398.151C124.561 398.527 124.415 398.884 124.173 399.168L124.086 399.277V399.42C124.486 402.831 125.552 405.437 127.245 407.231C128.133 408.146 129.198 408.862 130.372 409.332C131.545 409.802 132.802 410.016 134.061 409.96C136.428 409.978 138.72 409.115 140.511 407.531C142.323 405.982 143.547 403.831 143.969 401.453L155.59 388.846C159.194 384.924 162.179 382.932 164.452 382.932C165.065 382.917 165.674 383.027 166.246 383.254C166.818 383.481 167.34 383.821 167.783 384.255C168.219 384.651 168.567 385.139 168.803 385.685C169.038 386.232 169.157 386.823 169.149 387.42C169.105 388.03 168.975 388.63 168.763 389.201L168.543 389.883C168.474 390.104 168.441 390.334 168.443 390.565C168.421 390.766 168.444 390.97 168.508 391.161C168.573 391.352 168.678 391.526 168.817 391.67C168.955 391.814 169.123 391.925 169.308 391.995C169.494 392.065 169.692 392.091 169.889 392.073C170.915 392.073 171.435 390.988 171.435 388.853C171.525 386.757 170.826 384.706 169.482 383.123V383.123ZM141.737 401.63C141.737 402.995 140.897 404.359 139.232 405.676C137.779 406.942 135.948 407.664 134.041 407.722C132.268 407.723 130.546 407.115 129.15 405.996C127.705 404.871 126.972 403.629 126.972 402.306C126.972 401.344 127.371 401.16 127.505 401.098C127.804 400.962 128.604 400.798 130.663 400.798H138.772C140.658 400.784 141.737 401.125 141.737 401.63V401.63ZM103.284 400.948C104.292 400.776 105.315 400.716 106.336 400.771H114.525C116.271 400.771 116.944 400.928 117.19 401.064C117.297 401.119 117.643 401.303 117.643 402.197C117.643 403.561 116.917 404.843 115.484 405.969C114.1 407.09 112.385 407.698 110.62 407.695C108.693 407.645 106.841 406.923 105.37 405.648C103.711 404.332 102.871 402.967 102.871 401.555C102.884 401.125 103.084 401.023 103.278 400.962L103.284 400.948Z" fill="#E7DBD0"/>
</g>
<defs>
<clipPath id="clip0_54_333">
<rect width="563" height="514" fill="white"/>
</clipPath>
</defs>
</svg>
