<svg width="125" height="84" viewBox="0 0 125 84" fill="none" xmlns="http://www.w3.org/2000/svg">
<path d="M70.2152 66.1148C100.125 56.4715 120.86 37.7625 116.528 24.327C112.197 10.8916 84.4383 7.81747 54.5285 17.4608C24.6186 27.1041 3.88347 45.8132 8.21523 59.2486C12.547 72.684 40.3053 75.7581 70.2152 66.1148Z" stroke="#E7DBD0" stroke-width="1.87003" stroke-miterlimit="10"/>
<path d="M19.4559 64.1888C19.4557 65.1658 18.7034 65.9781 17.7293 66.0531L16.3143 66.1615H16.3123C14.7605 66.2803 13.5304 67.5144 13.4139 69.059C13.4135 69.0642 13.4124 69.0694 13.4119 69.0746L13.3045 70.4779C13.2295 71.452 12.4172 72.2043 11.4402 72.2045H9.88654C8.90944 72.2045 8.09632 71.4521 8.0213 70.4779L7.9129 69.0629V69.0619L7.87775 68.7748C7.63898 67.3601 6.46376 66.2717 5.01544 66.1625C5.00989 66.1621 5.00439 66.161 4.99884 66.1605L3.5965 66.0531C2.6224 65.9781 1.87011 65.1658 1.86994 64.1888V62.6351C1.86994 61.658 2.62228 60.8449 3.5965 60.7699L5.01154 60.6615L5.01447 60.6605C6.56593 60.5413 7.79547 59.3083 7.91193 57.764C7.91235 57.7585 7.91244 57.753 7.9129 57.7474L8.0213 56.3451C8.09632 55.3709 8.90944 54.6185 9.88654 54.6185H11.4402L11.6209 54.6273C12.5156 54.7135 13.2342 55.4317 13.3045 56.3451L13.4129 57.7601V57.7621H13.4139C13.5307 59.2881 14.7252 60.5031 16.2332 60.6537L16.3319 60.6625H16.3387L17.7293 60.7699C18.7035 60.8449 19.4559 61.658 19.4559 62.6351V64.1888Z" fill="#E7DBD0" stroke="#2D2926" stroke-width="3.74005" stroke-miterlimit="10" stroke-linejoin="round"/>
<path d="M117.476 16.1166C117.476 17.0936 116.724 17.9059 115.75 17.9809L114.335 18.0893H114.333C112.781 18.2081 111.551 19.4422 111.434 20.9867C111.434 20.9919 111.433 20.9971 111.433 21.0023L111.325 22.4057C111.25 23.3798 110.438 24.1321 109.461 24.1322H107.907C106.93 24.1322 106.117 23.3799 106.042 22.4057L105.933 20.9906V20.9897L105.898 20.7025C105.66 19.2879 104.484 18.1995 103.036 18.0902C103.03 18.0898 103.025 18.0888 103.019 18.0883L101.617 17.9809C100.643 17.9059 99.8907 17.0936 99.8905 16.1166V14.5629C99.8905 13.5858 100.643 12.7727 101.617 12.6977L103.032 12.5893L103.035 12.5883C104.587 12.4691 105.816 11.2361 105.933 9.6918C105.933 9.68628 105.933 9.68072 105.933 9.6752L106.042 8.27286C106.117 7.29864 106.93 6.54629 107.907 6.54629H109.461L109.641 6.55508C110.536 6.64123 111.255 7.35948 111.325 8.27286L111.433 9.68789V9.68985H111.434C111.551 11.2159 112.746 12.4309 114.254 12.5814L114.352 12.5902H114.359L115.75 12.6977C116.724 12.7727 117.476 13.5858 117.476 14.5629V16.1166Z" fill="#E7DBD0" stroke="#2D2926" stroke-width="3.74005" stroke-miterlimit="10" stroke-linejoin="round"/>
<path d="M116.529 59.2541C120.86 45.8186 100.125 27.1096 70.2153 17.4663C40.3054 7.82294 12.5471 10.8971 8.21536 24.3325C3.8836 37.7679 24.6187 56.477 54.5286 66.1203C84.4385 75.7636 112.197 72.6895 116.529 59.2541Z" stroke="#E7DBD0" stroke-width="1.87003" stroke-miterlimit="10"/>
<path fill-rule="evenodd" clip-rule="evenodd" d="M61.3484 33.166C63.6876 33.166 65.5749 34.1833 66.6531 35.8936L66.952 33.5869H70.0672V48.8994C70.0672 53.2153 67.2209 56.0039 62.244 56.0039C57.8094 56.0039 55.0823 53.9047 54.7518 50.5771H58.1395C58.348 52.1046 59.8475 53.2764 62.2156 53.2764C65.0936 53.2762 66.5603 51.5691 66.5604 49.2012V46.7715C65.4212 48.3599 63.6527 49.2588 61.3455 49.2588C57.1805 49.2588 54.2411 45.9921 54.241 41.2881C54.241 36.584 57.1835 33.1662 61.3484 33.166ZM62.1258 36.0732C59.5459 36.0732 57.8095 38.172 57.8094 41.2588C57.8094 44.3457 59.5779 46.3545 62.1258 46.3545C64.6734 46.3542 66.5018 44.2558 66.5018 41.2012V41.1982C66.5018 38.1725 64.7055 36.0735 62.1258 36.0732Z" fill="#E7DBD0"/>
<path fill-rule="evenodd" clip-rule="evenodd" d="M45.1629 33.166C49.989 33.166 52.8353 36.6129 52.7166 42.1289H40.7899C40.9696 45.0649 42.7088 47.0732 45.494 47.0732C47.5635 47.0732 48.8788 46.114 49.45 44.375H52.6561C51.9083 47.7025 49.0909 49.8584 45.4617 49.8584C40.5491 49.8584 37.372 46.4736 37.3719 41.5898C37.3719 36.2825 40.8792 33.1662 45.1629 33.166ZM45.1951 35.9229C43.0678 35.923 41.4508 37.3606 40.9695 39.6709H49.2703C48.8211 37.2739 47.4413 35.9229 45.1951 35.9229Z" fill="#E7DBD0"/>
<path d="M80.4988 33.166C84.5452 33.166 87.4529 35.6534 87.9022 39.4912H84.4559C84.0676 37.3349 82.6263 36.0732 80.4988 36.0732C77.7717 36.0735 75.9746 38.201 75.9744 41.4062C75.9744 44.6117 77.7716 46.9509 80.4988 46.9512C82.6263 46.9512 84.0965 45.6937 84.4559 43.5342H87.9022C87.3342 47.4297 84.5163 49.8584 80.4988 49.8584C75.705 49.8582 72.4383 46.4119 72.4383 41.4062C72.4385 36.5227 75.7052 33.1662 80.4988 33.166Z" fill="#E7DBD0"/>
</svg>
