<svg width="855" height="763" viewBox="0 0 855 763" fill="none" xmlns="http://www.w3.org/2000/svg">
<path d="M359.36 45.79L17.16 638.5C-13.08 690.89 24.72 756.37 85.21 756.37H769.61C830.1 756.37 867.91 690.89 837.66 638.5L495.46 45.79C465.22 -6.6 389.6 -6.6 359.36 45.79Z" fill="#2D2926"/>
<path d="M184.459 628.65C246.039 628.65 294.27 646.42 294.27 669.11C294.27 690.54 250.649 707.88 192.799 709.46L192.719 706.46C247.979 704.95 291.269 688.55 291.27 669.11C291.27 659.52 280.07 649.99 260.54 642.97C240.24 635.67 213.219 631.65 184.459 631.65C155.7 631.65 128.679 635.67 108.379 642.97C88.8495 650 77.6499 659.52 77.6499 669.11C77.6504 687.73 117.6 703.64 169.64 706.21L162.1 701.36L163.719 698.84L175.54 706.45H175.57V706.47L176.33 706.96C176.79 707.26 177.049 707.78 177.009 708.33C176.969 708.88 176.629 709.36 176.129 709.59L162.45 715.78L161.209 713.05L169.66 709.22C115.09 706.58 74.6403 689.7 74.6401 669.12C74.6401 646.43 122.87 628.66 184.45 628.66L184.459 628.65Z" fill="#E7DBD0"/>
<path fill-rule="evenodd" clip-rule="evenodd" d="M319.56 656.76C326.19 656.76 331.57 662.141 331.57 668.771C331.57 675.4 326.19 680.78 319.56 680.78C312.93 680.78 307.551 675.4 307.55 668.771C307.55 662.141 312.92 656.76 319.56 656.76ZM318.02 673.5C317.96 673.98 317.93 674.33 317.93 674.55C317.93 675.61 318.47 676.14 319.56 676.14V676.13C320.67 676.13 321.22 675.66 321.22 674.71C321.22 674.42 321.189 674.03 321.129 673.57L320.15 666.44H319L318.02 673.5ZM319.57 661.41C319.05 661.41 318.61 661.59 318.24 661.96C317.87 662.33 317.68 662.77 317.68 663.29C317.68 663.81 317.86 664.25 318.23 664.62C318.6 664.99 319.04 665.18 319.56 665.18C320.08 665.18 320.52 664.99 320.89 664.62H320.91C321.28 664.24 321.459 663.81 321.459 663.29C321.459 662.77 321.27 662.33 320.9 661.96C320.53 661.59 320.09 661.41 319.57 661.41Z" fill="#E7DBD0"/>
<path fill-rule="evenodd" clip-rule="evenodd" d="M772.39 656.76C779.02 656.76 784.4 662.141 784.4 668.771C784.4 675.4 779.02 680.78 772.39 680.78C765.76 680.78 760.381 675.4 760.38 668.771C760.38 662.141 765.75 656.76 772.39 656.76ZM772.38 672.36C771.86 672.36 771.42 672.55 771.05 672.92C770.68 673.3 770.5 673.73 770.5 674.25C770.5 674.77 770.69 675.21 771.06 675.58C771.43 675.95 771.87 676.13 772.39 676.13C772.91 676.13 773.35 675.95 773.72 675.58H773.7C774.07 675.21 774.26 674.77 774.26 674.25C774.26 673.73 774.079 673.29 773.709 672.92C773.34 672.55 772.9 672.36 772.38 672.36ZM772.39 661.42C771.28 661.42 770.73 661.89 770.73 662.84C770.73 663.13 770.76 663.52 770.82 663.98L771.8 671.11H772.95L773.93 664.05C773.99 663.57 774.02 663.22 774.02 663C774.02 661.94 773.48 661.41 772.39 661.41V661.42Z" fill="#E7DBD0"/>
<path d="M163.11 657.68C168.65 657.68 172.479 660.87 173.259 666.38H169.53C168.84 662.83 166.52 660.81 163.12 660.81C159.06 660.81 156.469 663.79 156.469 668.55C156.469 673.31 159.06 676.38 163.12 676.38C166.55 676.38 168.87 674.36 169.53 670.81H173.259C172.409 676.32 168.62 679.54 163.11 679.54C156.9 679.54 152.66 675 152.66 668.55C152.66 662.1 156.91 657.68 163.11 657.68Z" fill="#E7DBD0"/>
<path d="M470.389 658.26C472.039 658.26 473.539 658.91 474.889 660.21C474.949 660.12 475.04 660 475.15 659.86C475.26 659.71 475.37 659.56 475.48 659.38L475.469 659.41C475.579 659.24 475.71 658.98 475.86 658.65H477.25L476.33 664.8H474.879C474.779 664.07 474.61 663.36 474.37 662.65C474.13 661.94 473.7 661.29 473.06 660.68C472.42 660.07 471.54 659.771 470.41 659.771C469.49 659.771 468.739 660.02 468.139 660.51C467.549 661 467.25 661.671 467.25 662.521C467.25 663.09 467.39 663.62 467.669 664.12C467.939 664.62 468.32 665.12 468.81 665.61C469.3 666.1 469.87 666.63 470.54 667.2C471.809 668.28 472.769 669.28 473.429 670.2C474.079 671.12 474.41 672.19 474.41 673.4C474.41 674.42 474.14 675.4 473.61 676.34C473.08 677.29 472.3 678.05 471.28 678.65C470.26 679.24 469.08 679.54 467.75 679.54C467.17 679.54 466.589 679.46 466 679.3C465.41 679.14 464.85 678.9 464.32 678.58C463.79 678.25 463.249 677.82 462.719 677.29C462.489 677.52 462.159 678.09 461.75 679H460.33L461.299 671.84H462.719C462.759 672.98 462.939 673.95 463.259 674.76C463.589 675.56 464.01 676.21 464.52 676.68C465.03 677.15 465.58 677.5 466.16 677.71C466.74 677.92 467.29 678.03 467.83 678.03C468.429 678.03 468.959 677.89 469.429 677.62C469.899 677.35 470.27 676.98 470.54 676.51C470.809 676.04 470.94 675.53 470.94 674.97C470.94 674.41 470.83 673.93 470.62 673.5C470.41 673.07 470.1 672.64 469.69 672.21C469.28 671.78 468.569 671.08 467.549 670.12C466.26 668.91 465.36 667.88 464.85 667.021C464.34 666.171 464.089 665.27 464.089 664.33C464.089 663.27 464.38 662.27 464.959 661.33C465.539 660.39 466.32 659.65 467.29 659.09C468.269 658.54 469.299 658.26 470.389 658.26Z" fill="#E7DBD0"/>
<path fill-rule="evenodd" clip-rule="evenodd" d="M516.91 657.68C523.12 657.68 527.39 662.05 527.39 668.55C527.39 675.05 523.12 679.54 516.91 679.54C510.7 679.54 506.46 675 506.46 668.55C506.461 662.1 510.71 657.68 516.91 657.68ZM516.91 660.81C512.85 660.81 510.26 663.79 510.26 668.55C510.26 673.31 512.85 676.38 516.91 676.38C520.97 676.38 523.62 673.25 523.62 668.55C523.62 663.85 520.97 660.81 516.91 660.81Z" fill="#E7DBD0"/>
<path d="M579.7 671.86C579.7 674.63 581.54 676.38 584.43 676.38C587.32 676.38 589.16 674.63 589.16 671.86V658.07H592.83V671.95C592.83 676.26 589.97 679.51 584.43 679.54C578.89 679.51 576.03 676.25 576.03 671.95V658.07H579.7V671.86Z" fill="#E7DBD0"/>
<path d="M687.99 657.68C693.53 657.68 697.36 660.87 698.14 666.38H694.41C693.72 662.83 691.4 660.81 688 660.81C683.941 660.81 681.35 663.79 681.35 668.55C681.35 673.31 683.94 676.38 688 676.38C691.43 676.38 693.75 674.359 694.41 670.81H698.14C697.29 676.32 693.5 679.54 687.99 679.54C681.79 679.54 677.541 675 677.541 668.55C677.541 662.1 681.79 657.68 687.99 657.68Z" fill="#E7DBD0"/>
<path fill-rule="evenodd" clip-rule="evenodd" d="M718.19 657.68C724.39 657.68 728.669 662.05 728.669 668.55C728.669 675.05 724.39 679.54 718.19 679.54C711.99 679.54 707.74 675 707.74 668.55C707.74 662.1 711.99 657.68 718.19 657.68ZM718.19 660.81C714.13 660.81 711.54 663.79 711.54 668.55C711.54 673.31 714.13 676.38 718.19 676.38C722.25 676.38 724.9 673.25 724.9 668.55C724.9 663.85 722.25 660.81 718.19 660.81Z" fill="#E7DBD0"/>
<path d="M112.65 657.68C117.26 657.68 120.419 660.26 120.929 664.51H117.259C116.869 662.16 115.09 660.66 112.62 660.66C110.34 660.66 108.86 661.74 108.86 663.43C108.86 665.41 110.49 665.84 114.31 666.89C119.34 668.27 121.45 669.78 121.45 673.15C121.45 677.06 118.349 679.53 113.62 679.53C108.11 679.53 104.89 677.09 104.62 672.88H108.29C108.53 675.2 110.4 676.52 113.589 676.521C116.079 676.521 117.77 675.38 117.77 673.42C117.77 671.22 115.719 670.86 112.259 669.9C108.309 668.79 105.179 667.82 105.179 663.7C105.179 660.18 108.28 657.68 112.65 657.68Z" fill="#E7DBD0"/>
<path fill-rule="evenodd" clip-rule="evenodd" d="M225.17 657.67C230.35 657.67 233.54 661.8 233.54 668.54C233.54 675.37 230.38 679.53 225.17 679.53C219.96 679.53 216.77 675.29 216.77 668.54C216.77 661.79 219.99 657.67 225.17 657.67ZM225.17 660.71C222.04 660.71 220.32 663.45 220.32 668.54C220.32 673.72 222.04 676.49 225.17 676.49C228.3 676.49 229.99 673.63 229.99 668.54C229.99 663.45 228.3 660.71 225.17 660.71Z" fill="#E7DBD0"/>
<path fill-rule="evenodd" clip-rule="evenodd" d="M255.49 657.67C260.67 657.67 263.86 661.8 263.86 668.54C263.86 675.37 260.7 679.53 255.49 679.53C250.28 679.53 247.09 675.29 247.09 668.54C247.09 661.79 250.31 657.67 255.49 657.67ZM255.49 660.71C252.36 660.71 250.64 663.45 250.64 668.54C250.64 673.72 252.36 676.49 255.49 676.49C258.62 676.49 260.31 673.63 260.31 668.54C260.31 663.45 258.62 660.71 255.49 660.71Z" fill="#E7DBD0"/>
<path d="M564.53 657.68C569.14 657.68 572.3 660.26 572.81 664.51H569.14C568.75 662.16 566.969 660.66 564.499 660.66C562.21 660.66 560.74 661.74 560.74 663.43C560.74 665.41 562.37 665.84 566.19 666.89H566.18C571.21 668.27 573.32 669.78 573.32 673.15C573.32 677.06 570.22 679.53 565.49 679.53C559.98 679.53 556.76 677.09 556.49 672.88H560.16C560.4 675.2 562.27 676.52 565.459 676.521C567.949 676.521 569.64 675.38 569.64 673.42C569.64 671.22 567.589 670.86 564.129 669.9C560.19 668.79 557.06 667.82 557.06 663.7C557.06 660.18 560.16 657.68 564.53 657.68Z" fill="#E7DBD0"/>
<path d="M421.82 658.25C422.82 658.25 423.71 658.41 424.48 658.73C425.25 659.05 425.85 659.401 426.27 659.771C426.69 660.15 427.07 660.541 427.39 660.94C427.91 660.391 428.329 659.65 428.629 658.73H430.02L428.509 665.74H427.06L427.089 665.71V665.271C427.089 663.681 426.789 662.46 426.209 661.61C425.629 660.77 424.98 660.22 424.29 659.98C423.6 659.74 422.969 659.62 422.429 659.62C421.259 659.62 420.15 660.04 419.12 660.87C418.08 661.71 417.189 662.8 416.429 664.15C415.669 665.51 415.08 666.97 414.66 668.55C414.23 670.13 414.02 671.59 414.02 672.92C414.02 673.83 414.16 674.66 414.44 675.42C414.72 676.18 415.16 676.79 415.75 677.25C416.34 677.72 417.07 677.95 417.95 677.95C418.78 677.95 419.68 677.72 420.64 677.26C421.61 676.8 422.5 676.14 423.33 675.28C424.159 674.42 424.819 673.39 425.299 672.19H426.75L424.74 678.99H423.469C423.519 678.62 423.549 678.28 423.549 677.95C423.549 677.62 423.519 677.27 423.469 676.92C422.779 677.65 421.919 678.271 420.879 678.771C419.84 679.27 418.729 679.521 417.549 679.521C416.07 679.52 414.73 679.16 413.52 678.45C412.3 677.74 411.359 676.77 410.669 675.54C409.979 674.3 409.64 672.96 409.64 671.51C409.64 669.73 409.999 668.03 410.719 666.4C411.439 664.77 412.399 663.34 413.589 662.12C414.779 660.9 416.1 659.95 417.54 659.271C418.98 658.591 420.41 658.25 421.82 658.25Z" fill="#E7DBD0"/>
<path d="M358.36 658.25C360.87 658.25 362.65 659.12 363.7 660.88C364.19 660.42 364.61 659.7 364.94 658.73H366.36L364.8 665.8H363.41C363.41 664.43 363.21 663.28 362.82 662.33C362.06 660.54 360.71 659.64 358.76 659.64C357.44 659.64 356.22 660.07 355.14 660.92C354.06 661.77 353.14 662.87 352.39 664.21C351.64 665.55 351.06 667 350.66 668.56C350.25 670.12 350.05 671.57 350.05 672.9C350.05 673.61 350.15 674.33 350.35 675.08C350.55 675.83 350.96 676.5 351.59 677.08C352.22 677.67 353.12 677.96 354.29 677.96C355.34 677.96 356.37 677.68 357.35 677.14C358.33 676.59 359 675.7 359.34 674.46L359.49 673.9C359.59 673.551 359.64 673.27 359.64 673.07C359.64 672.13 358.97 671.66 357.63 671.66L358.07 670.271H366.37L365.9 671.66C365.25 671.67 364.77 671.84 364.48 672.18C364.19 672.52 363.89 673.14 363.6 674.05L362.09 678.98L360.29 677.83C359.19 678.35 358.13 678.76 357.13 679.06C356.13 679.36 355 679.51 353.75 679.51C351.92 679.51 350.41 679.14 349.2 678.4C347.99 677.66 347.1 676.68 346.54 675.45C345.97 674.23 345.69 672.91 345.69 671.51C345.69 669.91 346.011 668.32 346.67 666.73C347.33 665.141 348.24 663.71 349.41 662.42C350.58 661.13 351.94 660.12 353.49 659.37C355.04 658.62 356.66 658.25 358.36 658.25Z" fill="#E7DBD0"/>
<path d="M207.84 657.68C211.9 657.68 214.789 660.21 214.79 663.85L214.78 663.86C214.779 671.05 204.781 670.99 204.09 676.05H214.54V679.15H200.45V677.16C200.45 669.03 211.14 669.63 211.14 663.94C211.14 662.04 209.76 660.78 207.68 660.78C205.37 660.78 203.651 662.19 203.59 664.81H199.98C200.28 660.21 203.57 657.68 207.84 657.68Z" fill="#E7DBD0"/>
<path fill-rule="evenodd" clip-rule="evenodd" d="M380.58 658.61C381.659 658.61 382.55 658.67 383.24 658.78C383.93 658.89 384.6 659.12 385.26 659.46C386.06 659.86 386.72 660.42 387.23 661.15C387.74 661.88 388 662.76 388 663.79C388 664.31 387.9 664.88 387.7 665.49C387.5 666.1 387.14 666.69 386.64 667.26C386.14 667.83 385.42 668.32 384.5 668.73C383.58 669.13 382.42 669.39 381.03 669.49C381.54 669.89 381.94 670.34 382.25 670.85C382.56 671.36 382.9 672.21 383.26 673.4C383.53 674.28 383.791 674.981 384.041 675.521C384.281 676.06 384.65 676.53 385.14 676.93L385.13 676.94C385.62 677.35 386.29 677.62 387.15 677.76L386.73 679.15H381.45C381.17 678.78 380.91 678.31 380.66 677.76C380.4 677.21 380.01 676.189 379.49 674.72L378.87 672.95C378.56 672.02 378.31 671.37 378.13 671C377.94 670.62 377.65 670.33 377.24 670.12C376.83 669.91 376.21 669.8 375.37 669.8H374.51L372.92 674.98C372.74 675.55 372.65 675.99 372.65 676.28C372.65 676.92 372.9 677.32 373.39 677.5C373.88 677.67 374.501 677.76 375.25 677.76L374.81 679.15H365.52L365.94 677.76C366.51 677.76 366.95 677.69 367.26 677.56C367.57 677.43 367.831 677.2 368.041 676.87C368.24 676.54 368.44 676.07 368.62 675.45L372.53 662.61C372.71 662.001 372.8 661.6 372.8 661.41C372.8 660.91 372.63 660.55 372.26 660.33C371.89 660.11 371.48 660 371.03 660H370.44L370.85 658.61H380.58ZM374.98 668.29H376.56C378.83 668.29 380.4 668.04 381.27 667.55C382.06 667.11 382.67 666.49 383.1 665.7C383.53 664.91 383.75 664.1 383.75 663.271C383.75 661.921 383.31 661.05 382.43 660.68C381.55 660.31 380.5 660.12 379.291 660.12H377.46L374.98 668.29Z" fill="#E7DBD0"/>
<path d="M128.12 679.14H124.45V658.07H128.12V679.14Z" fill="#E7DBD0"/>
<path d="M145.929 673.69V658.07H149.629V679.14H145.929L135.81 663.61V679.14H132.14V658.07H135.81L145.929 673.69Z" fill="#E7DBD0"/>
<path d="M191.04 661.2H179.81V666.74H189.93V669.81H179.81V676.01H191.31V679.14H176.17V658.07H191.04V661.2Z" fill="#E7DBD0"/>
<path d="M243.91 679.14H240.36V662.61H240.18C239.48 664.54 237.98 665.35 235.57 665.35H235.27V662.01H235.75C238.76 662.01 239.91 660.75 240.45 658.43L240.51 658.07H243.91V679.14Z" fill="#E7DBD0"/>
<path fill-rule="evenodd" clip-rule="evenodd" d="M405.35 675.35C405.35 676.03 405.43 676.53 405.58 676.86V676.85C405.73 677.18 405.99 677.41 406.34 677.54C406.69 677.67 407.2 677.74 407.87 677.74L407.46 679.13H398.14L398.56 677.74C399.34 677.74 399.93 677.65 400.36 677.47C400.79 677.29 401.09 676.96 401.27 676.48C401.45 676.001 401.541 675.31 401.541 674.4V671.83H395.09L392.88 675.05C392.35 675.85 392.08 676.43 392.08 676.78C392.08 677.43 392.7 677.75 393.94 677.75H394.8L394.38 679.14H387.02L387.46 677.75C388.15 677.7 388.851 677.35 389.541 676.71C390.23 676.07 390.98 675.17 391.8 674.021L402.93 658.25H405.56L405.35 675.35ZM396.11 670.44H401.55L401.7 662.4L396.11 670.44Z" fill="#E7DBD0"/>
<path d="M441.31 660.01C440.9 660.02 440.55 660.111 440.28 660.271C440.01 660.43 439.79 660.66 439.62 660.97C439.46 661.28 439.28 661.73 439.1 662.31L435.26 674.96C435.08 675.53 434.99 675.98 434.99 676.29L434.97 676.3C434.97 676.81 435.18 677.18 435.6 677.41C436.02 677.64 436.51 677.75 437.08 677.75L436.69 679.14H428.15L428.59 677.75C429.31 677.75 429.82 677.55 430.13 677.15C430.44 676.75 430.7 676.19 430.92 675.45L434.8 662.81C434.98 662.18 435.07 661.731 435.07 661.48C435.07 660.9 434.89 660.52 434.52 660.34C434.15 660.16 433.74 660.05 433.3 660.01L433.74 658.62H441.75L441.31 660.01Z" fill="#E7DBD0"/>
<path fill-rule="evenodd" clip-rule="evenodd" d="M456.209 675.35C456.209 676.03 456.29 676.53 456.44 676.86V676.85C456.59 677.18 456.85 677.41 457.2 677.54C457.55 677.67 458.06 677.74 458.73 677.74L458.32 679.13H449L449.419 677.74C450.199 677.74 450.79 677.65 451.22 677.47C451.65 677.29 451.95 676.96 452.13 676.48C452.31 676.001 452.4 675.31 452.4 674.4V671.83H445.95L443.74 675.05C443.21 675.85 442.94 676.43 442.94 676.78C442.94 677.43 443.56 677.75 444.8 677.75H445.66L445.24 679.14H437.88L438.32 677.75C439.01 677.7 439.71 677.35 440.4 676.71C441.09 676.07 441.84 675.17 442.66 674.021L453.79 658.25H456.419L456.209 675.35ZM446.97 670.44H452.41L452.56 662.4L446.97 670.44Z" fill="#E7DBD0"/>
<path fill-rule="evenodd" clip-rule="evenodd" d="M497.91 658.07C501.91 658.07 504.679 660.78 504.679 664.78C504.679 668.78 501.91 671.52 497.91 671.521H491.02V679.14H487.35V658.07H497.91ZM491.03 668.49H497.23V668.48C499.7 668.48 501.02 667.04 501.02 664.78C501.02 662.52 499.7 661.17 497.23 661.17H491.03V668.49Z" fill="#E7DBD0"/>
<path fill-rule="evenodd" clip-rule="evenodd" d="M541.249 658.07C545.009 658.07 547.6 660.54 547.6 664.03C547.6 666.83 545.97 668.82 542.9 669.45V669.6C544.83 669.9 545.46 670.71 546.06 672.28L548.709 679.14H544.74L542.33 672.67C541.97 671.7 541.49 671.22 539.95 671.22H534.14V679.14H530.47V658.07H541.249ZM534.14 668.22H540.37C542.57 668.22 543.95 666.84 543.95 664.58C543.95 662.47 542.72 661.18 540.58 661.18H534.14V668.22Z" fill="#E7DBD0"/>
<path fill-rule="evenodd" clip-rule="evenodd" d="M621.1 679.14H617.31L615.38 673.78H606.71L604.84 679.14H601.02L608.97 658.07H613.06L621.1 679.14ZM607.8 670.71H614.27L610.99 661.53L607.8 670.71Z" fill="#E7DBD0"/>
<path d="M636.59 661.23H629.69V679.14H626.02V661.23H619.13V658.07H636.59V661.23Z" fill="#E7DBD0"/>
<path d="M653.83 661.2H642.6V666.74H652.72V669.81H642.6V676.01H654.11V679.14H638.96V658.07H653.83V661.2Z" fill="#E7DBD0"/>
<path d="M670.799 673.69V658.07H674.5V679.14H670.799L660.69 663.61V679.14H657.01V658.07H660.69L670.799 673.69Z" fill="#E7DBD0"/>
<path d="M704.7 679.14H701.03V658.07H704.7V679.14Z" fill="#E7DBD0"/>
<path d="M745.54 673.69V658.07H749.24V679.14H745.54L735.42 663.61V679.14H731.75V658.07H735.42L745.54 673.69Z" fill="#E7DBD0"/>
<path d="M722.95 653.34L715.94 656.44L714.85 654.21L721.62 650.66L722.95 653.34Z" fill="#E7DBD0"/>
<path fill-rule="evenodd" clip-rule="evenodd" d="M682.68 560.44C694.52 560.441 704.11 570.04 704.11 581.87V583.271C704.11 595.11 694.51 604.7 682.68 604.7H631.839C620 604.7 610.41 595.1 610.41 583.271V581.87C610.41 570.03 620.01 560.441 631.839 560.44H682.68ZM677.549 571.95C671.89 571.95 667.93 576 667.93 581.95C667.93 587.9 671.88 592.059 677.549 592.06C682.629 592.06 686.13 589.06 686.9 584.021L686.94 583.73H683.089L683.049 583.93C682.469 587.02 680.52 588.72 677.54 588.72C674.06 588.72 671.82 586.01 671.82 581.95C671.82 577.89 674.07 575.26 677.54 575.26C680.489 575.26 682.449 576.96 683.049 580.05L683.089 580.25H686.93L686.89 579.96C686.18 574.94 682.68 571.94 677.54 571.94L677.549 571.95ZM654.57 571.94C648.78 571.94 644.89 575.89 644.89 581.94C644.89 587.99 648.61 592.05 654.16 592.05C657.36 592.05 659.64 590.54 660.64 587.84V591.7H663.87V584.86C663.87 582.68 662.67 581.48 660.49 581.48H653.62V584.521H659.32C659.01 587.15 657.15 588.771 654.41 588.771C650.95 588.771 648.799 586.07 648.799 581.94C648.799 577.81 651.01 575.25 654.57 575.25C657.49 575.25 659.5 576.96 660.08 579.94L660.12 580.14H663.959L663.919 579.85C663.209 574.97 659.62 571.94 654.57 571.94ZM627.64 591.69H641.719V588.38H631.4V583.32H640.469V580.07H631.4V575.6H641.469V572.29H627.64V591.69Z" fill="#E7DBD0"/>
<path d="M513.5 561.57C512.28 565.36 510.99 568.91 509.65 572.21V604.69H507.259V576.98C505.909 579.79 504.32 582.48 502.49 585.05V585.06C502.36 584.81 502.24 584.51 502.12 584.14C501.76 583.4 501.509 582.92 501.389 582.67C505.549 576.68 508.849 569.46 511.299 561.021L513.5 561.57Z" fill="#E7DBD0"/>
<path fill-rule="evenodd" clip-rule="evenodd" d="M457.79 565.23H467.15V567.43H457.79V572.57H465.679V589.271H457.79V594.59H466.969V596.79H457.79V604.68H455.4V596.79H445.31V594.59H455.4V589.271H447.33V572.57H455.4V567.43H445.669V565.23H455.4V560.46H457.79V565.23ZM449.709 587.06H463.29V581.92H449.709V587.06ZM449.709 579.91H463.29V574.771H449.709V579.91Z" fill="#E7DBD0"/>
<path d="M412.089 560.56C412.459 562.15 412.82 563.92 413.19 565.88H430.62V568.08H393.919V581.29C393.919 587.29 393.55 591.81 392.82 594.87C392.21 597.93 390.8 601.17 388.6 604.6C387.98 604.11 387.31 603.56 386.58 602.95C388.66 599.77 389.939 596.83 390.429 594.14C391.039 591.57 391.35 587.169 391.35 580.93V565.88H410.799C410.439 564.29 410.01 562.7 409.52 561.11L412.089 560.56Z" fill="#E7DBD0"/>
<path fill-rule="evenodd" clip-rule="evenodd" d="M404.56 573.771H420.52V569.73H422.91L422.919 569.74V573.78H430.08V575.98H422.919V583.5H413.74V588.64H427.5V596.16C427.739 599.34 426.15 600.99 422.73 601.11H418.509L417.959 599.09H422.179C424.259 599.21 425.24 598.17 425.12 595.97V590.83H413.74V604.59H411.35V590.83H400.16V601.84H397.77V588.63H411.35V583.49H402.169V575.97H395.929V573.771H402.169V569.73H404.56V573.771ZM404.56 581.47H420.52V575.97H404.56V581.47Z" fill="#E7DBD0"/>
<path d="M466.419 604.5H466.41C466.411 604.498 466.412 604.496 466.414 604.494C466.416 604.496 466.417 604.498 466.419 604.5Z" fill="#E7DBD0"/>
<path fill-rule="evenodd" clip-rule="evenodd" d="M486.959 598.63C487.079 602.06 485.49 603.77 482.19 603.771H477.419L476.87 601.2C478.21 601.32 479.619 601.38 481.089 601.38C483.659 601.62 484.82 600.58 484.58 598.26V589.271H473.2C472.83 595.268 470.57 600.335 466.414 604.494C465.556 603.638 464.889 603.089 464.4 602.85C467.21 600.03 468.989 597.28 469.719 594.59C470.569 591.9 471 587.37 471 581.01V563.21H486.959V598.63ZM473.379 587.07H484.57V577.34H473.379V587.07ZM473.379 575.14H484.57V565.41H473.379V575.14Z" fill="#E7DBD0"/>
<path d="M534.23 580.82C534.23 582.53 534.349 584.98 534.599 588.16H545.79V590.18H534.959C535.329 592.51 535.819 594.53 536.429 596.24C538.019 594.9 539.55 593.43 541.02 591.84L542.669 593.31C540.839 595.14 539.059 596.79 537.349 598.26C537.719 598.87 538.27 599.48 538.999 600.09C539.609 601.19 540.34 601.68 541.2 601.56C541.94 601.68 542.55 600.95 543.04 599.36V599.37C543.409 598.52 543.709 597.23 543.959 595.521C544.689 595.89 545.43 596.2 546.16 596.44C546.03 596.93 545.909 597.541 545.79 598.271C545.54 599.13 545.36 599.8 545.24 600.29C544.51 602.86 543.229 604.08 541.389 603.96C539.919 604.08 538.569 603.41 537.349 601.94C536.989 601.57 536.56 601.02 536.07 600.29C535.71 599.92 535.459 599.61 535.339 599.37C533.139 600.84 530.51 602.24 527.45 603.59C527.2 603.1 526.71 602.49 525.98 601.76C528.3 600.9 531.12 599.55 534.419 597.72C533.559 595.64 532.95 593.14 532.58 590.2H523.4V594.05C524.14 593.93 525.12 593.8 526.339 593.68C527.799 593.44 528.909 593.25 529.639 593.13C529.639 594.11 529.7 594.78 529.82 595.15C529.2 595.27 528.04 595.46 526.33 595.7C524.98 595.83 523.999 595.95 523.389 596.07V598.82C523.389 602 521.93 603.65 518.99 603.771H515.32V602.67C515.2 602.06 515.139 601.63 515.139 601.39C515.999 601.51 516.98 601.57 518.08 601.57C520.279 601.69 521.32 600.65 521.2 598.45V596.25C519.37 596.5 516.92 596.86 513.86 597.35C513.61 597.469 513.43 597.53 513.31 597.53L512.94 595.14C513.79 595.02 515.08 594.89 516.79 594.771C518.74 594.531 520.21 594.34 521.19 594.22V590.18H512.929V588.16H521.19V584.67C519.23 584.79 517.209 584.85 515.129 584.85C515.129 584.73 515.07 584.55 514.95 584.3C514.95 583.81 514.82 583.32 514.58 582.83C518 582.83 522.53 582.59 528.16 582.1L528.53 584.12H527.98C526.51 584.37 524.979 584.49 523.389 584.49V588.16H532.2C532.08 587.43 532.02 586.2 532.02 584.49C531.9 582.9 531.839 581.68 531.839 580.82H534.23Z" fill="#E7DBD0"/>
<path d="M329.04 586.78C330.23 586.78 331.23 587.73 331.23 588.94C331.23 590.15 330.229 591.15 329.04 591.15C327.83 591.15 326.849 590.1 326.849 588.94C326.849 587.78 327.85 586.78 329.04 586.78Z" fill="#E7DBD0"/>
<path d="M350.86 586.78C352.05 586.78 353.049 587.731 353.049 588.94C353.049 590.15 352.05 591.15 350.86 591.15C349.65 591.15 348.67 590.1 348.669 588.94C348.669 587.78 349.67 586.78 350.86 586.78Z" fill="#E7DBD0"/>
<path d="M373.23 586.78C374.42 586.78 375.419 587.731 375.419 588.94C375.419 590.15 374.42 591.15 373.23 591.15C372.02 591.15 371.04 590.1 371.04 588.94C371.04 587.78 372.04 586.78 373.23 586.78Z" fill="#E7DBD0"/>
<path fill-rule="evenodd" clip-rule="evenodd" d="M572.629 576.46C576.269 576.46 578.509 578.7 578.509 582.21C578.509 587.27 574.76 591.15 569.91 591.15V591.14C566.25 591.14 563.98 588.9 563.98 585.37C563.98 580.31 567.729 576.46 572.629 576.46ZM572.23 579C569.35 579 567.11 581.69 567.11 585.14C567.11 587.28 568.27 588.62 570.249 588.62C573.119 588.62 575.389 585.88 575.389 582.37C575.389 580.31 574.23 578.99 572.23 578.99V579Z" fill="#E7DBD0"/>
<path fill-rule="evenodd" clip-rule="evenodd" d="M317.639 576.47C321.279 576.47 323.389 578.34 323.389 581.11V587.39C323.389 588.31 323.759 588.6 324.549 588.6H324.889V590.81L324.879 590.82H323.589C321.799 590.82 320.87 590.05 320.69 588.55H320.61C319.85 590.16 318.079 591.08 315.709 591.08C312.68 591.08 310.81 589.52 310.81 586.99C310.81 584.64 312.26 583.24 315.11 582.9L318.589 582.45C319.849 582.29 320.379 581.74 320.379 580.87C320.379 579.77 319.43 578.9 317.45 578.95C315.58 578.98 314.289 579.88 314.049 581.3H311.07C311.44 578.45 313.999 576.47 317.639 576.47ZM320.37 583.47C320.05 584.24 319.34 584.61 318.31 584.74L315.73 585.08C314.52 585.24 313.81 585.87 313.81 586.85C313.81 588.04 314.84 588.75 316.58 588.75C318.93 588.75 320.379 587.28 320.379 585.01L320.37 585V583.47Z" fill="#E7DBD0"/>
<path fill-rule="evenodd" clip-rule="evenodd" d="M361.81 576.48C365.45 576.481 367.56 578.35 367.56 581.12V587.4C367.56 588.32 367.93 588.61 368.719 588.61H369.06V590.82H367.77C365.98 590.82 365.05 590.05 364.87 588.55H364.79C364.03 590.16 362.259 591.08 359.889 591.08C356.86 591.08 354.99 589.52 354.99 586.99C354.99 584.64 356.44 583.24 359.29 582.9L362.77 582.45L362.759 582.46C364.019 582.3 364.549 581.75 364.549 580.88C364.549 579.78 363.6 578.91 361.62 578.96C359.75 578.99 358.459 579.89 358.219 581.31H355.24C355.61 578.46 358.17 576.48 361.81 576.48ZM364.549 583.47C364.229 584.24 363.52 584.61 362.49 584.74L359.91 585.08C358.7 585.24 357.99 585.87 357.99 586.85C357.99 588.04 359.019 588.75 360.759 588.75C363.109 588.75 364.56 587.28 364.56 585.01V583.48L364.549 583.47Z" fill="#E7DBD0"/>
<path d="M336.94 583.4L343.03 576.84H346.75L341.56 582.03L347.36 590.81H343.77L339.5 584.09L336.94 586.67V590.81H333.86V571.3H336.94V583.4Z" fill="#E7DBD0"/>
<path d="M589.129 579.57H587.79C585.34 579.57 584.1 580.92 583.65 583.08L582.089 590.81H579.03L581.879 576.84H584.599L584.36 579.13H584.41C585.41 577.44 586.67 576.7 588.44 576.7H589.709L589.129 579.57Z" fill="#E7DBD0"/>
<path d="M538.629 581.01C539.119 581.5 539.79 582.23 540.65 583.21C541.51 584.19 542.12 584.86 542.49 585.23L540.65 586.7C540.16 586.09 539.179 584.92 537.709 583.21C537.35 582.84 537.1 582.54 536.98 582.29L538.629 581.01Z" fill="#E7DBD0"/>
<path d="M539.549 561.94C538.569 562.92 536.979 564.33 534.78 566.16H545.06V567.99H530.929V571.84H543.41V573.86H530.929V577.53H545.98V579.56H513.679V577.54H528.54V573.87H516.429V571.85H528.54V568H514.41V566.17H524.499C523.28 564.7 521.87 563.35 520.28 562.13L521.929 560.48C523.519 561.7 525.11 563.17 526.7 564.88L525.419 566.16H534.23L532.759 564.69C534.829 563.22 536.489 561.82 537.709 560.47L539.549 561.94Z" fill="#E7DBD0"/>
<path fill-rule="evenodd" clip-rule="evenodd" d="M681.39 543.48C702.45 543.481 719.58 560.61 719.58 581.67V583.47C719.58 604.53 702.45 621.66 681.39 621.66H323.36C302.3 621.66 285.17 604.53 285.17 583.47V581.67C285.17 560.61 302.3 543.48 323.36 543.48H681.39ZM323.35 546.48C303.95 546.48 288.16 562.26 288.16 581.67V583.47H288.17C288.17 602.87 303.95 618.66 323.36 618.66H681.38C700.78 618.66 716.57 602.88 716.57 583.47V581.67C716.57 562.27 700.79 546.481 681.38 546.48H323.35Z" fill="#E7DBD0"/>
<path fill-rule="evenodd" clip-rule="evenodd" d="M187.62 563.28C190.59 563.28 193.09 564.39 195.03 566.57C196.96 568.73 197.94 571.52 197.94 574.85C197.94 577.979 197.15 579.57 195.61 579.57C194.22 579.57 193.45 578.8 193.45 577.41C193.45 577.09 193.499 576.77 193.589 576.45L193.919 575.43C194.299 574.28 194.499 573.41 194.5 572.82C194.5 571.02 193.859 569.54 192.549 568.29C191.219 567.03 189.67 566.42 187.78 566.42C184.36 566.42 180.51 568.6 176.33 572.9L160.24 589.51H179.299C181.249 589.51 182.409 589.19 182.41 588.65V587.87C182.41 585.08 184.59 583.67 188.91 583.67C190.49 583.67 191.86 584.06 193 584.83C194.199 585.67 194.799 586.7 194.799 587.88V588.41C194.8 589.37 196.8 589.51 197.99 589.51H220.37L236.69 572.49C242.5 566.42 247.57 563.34 251.78 563.34C254.86 563.34 257.41 564.44 259.37 566.61C261.32 568.77 262.299 571.58 262.299 574.96C262.299 578.09 261.509 579.68 259.969 579.68C258.58 579.68 257.81 578.89 257.81 577.47C257.81 577.15 257.86 576.83 257.95 576.51L258.28 575.521C258.66 574.381 258.86 573.5 258.86 572.91C258.86 571.09 258.19 569.57 256.81 568.271C255.42 566.961 253.79 566.33 251.82 566.33C248.41 566.33 243.929 569.25 238.509 575L221.04 593.45C220.35 597.03 218.61 600.03 215.85 602.36C213.06 604.73 209.8 605.93 206.18 605.93C201.94 605.93 198.5 604.58 195.94 601.93C193.4 599.3 191.8 595.44 191.2 590.47L191.18 590.26L191.31 590.1C191.72 589.57 191.93 589.07 191.93 588.61C191.93 587.96 191.699 587.51 191.219 587.19C190.689 586.84 189.84 586.66 188.7 586.66C185.62 586.66 185.259 587.82 185.259 588.69C185.259 589.13 185.48 589.59 185.93 590.06L186.1 590.24L186.06 590.48C185.2 595.72 183.53 599.64 181.07 602.13C178.59 604.64 175.149 605.92 170.839 605.92L170.87 605.94C166.63 605.94 163 604.38 160.08 601.31C157.16 598.25 155.68 594.45 155.68 590.021V589.82L174.73 570.39C179.35 565.67 183.69 563.28 187.62 563.28ZM201.11 592.5C198.01 592.5 196.82 592.74 196.36 592.94C196.16 593.02 195.56 593.29 195.56 594.71H195.57C195.57 596.64 196.669 598.46 198.839 600.11C201.049 601.8 203.54 602.65 206.18 602.65C208.82 602.65 211.439 601.65 213.969 599.67C216.459 597.73 217.73 595.73 217.73 593.74C217.73 592.95 216.11 592.5 213.28 592.5H201.11ZM164.589 592.49C161.53 592.49 160.409 592.63 160.009 592.75C159.709 592.84 159.41 593.021 159.41 593.73C159.41 595.75 160.67 597.75 163.15 599.68C165.67 601.64 168.38 602.64 171.04 602.64C173.699 602.64 176.149 601.79 178.339 600.11C180.479 598.46 181.57 596.6 181.57 594.58C181.57 593.271 181.06 593.01 180.89 592.92C180.51 592.72 179.499 592.49 176.879 592.49H164.589Z" fill="#E7DBD0"/>
<path d="M592.549 494.12C592.909 494.88 593.209 495.46 593.459 495.9C593.479 495.54 593.49 495.11 593.49 494.6V446.65C593.49 438 591.049 436.31 586.839 436.31H585.339V433.12H605.129V436.31H603.629C599.42 436.31 596.98 438.001 596.98 446.65V520.19L560.169 446.25V446.24C560.109 446.13 560.049 446.02 559.999 445.91V500.22C559.999 508.87 562.44 510.56 566.65 510.56H568.15V513.75H548.36V510.56H549.86C554.07 510.56 556.51 508.87 556.51 500.22V439.96C554.52 437.37 552.54 436.3 549.76 436.3H548.26V433.11H562.24L592.549 494.12Z" fill="#E7DBD0"/>
<path d="M425.77 431.58C435.98 431.58 446.669 435.01 453.679 440.54L454.25 440.99V462.82H450.86V461.32C450.86 444.21 442.19 435.16 425.77 435.16C416.12 435.16 407.21 438.77 400.69 445.32C394.44 451.59 391.03 460 391.07 468.98C391.02 480.99 395.339 491.95 403.219 499.87C410.229 506.9 419.48 510.77 429.27 510.77C437.78 510.769 444.73 508.07 451.78 502.01L454.259 499.88V504.3L453.759 504.75C446.119 511.57 436.18 515.32 425.78 515.32L425.77 515.33C402.41 515.33 383.41 496.4 383.41 473.36C383.41 450.32 402.41 431.58 425.77 431.58Z" fill="#E7DBD0"/>
<path d="M220.23 431.57C230.44 431.57 241.129 435 248.139 440.53L248.709 440.98V462.81H245.32V461.31C245.32 444.2 236.65 435.151 220.23 435.15C210.58 435.15 201.67 438.76 195.15 445.31C188.9 451.59 185.49 459.99 185.53 468.97C185.48 480.98 189.799 491.94 197.679 499.86C204.689 506.89 213.94 510.76 223.73 510.76C227.73 510.76 231.339 510.17 234.469 509.01C239.089 507.1 241.259 503.53 241.259 497.8V486.35C241.259 483.57 240.239 480.86 228.009 480.86H226.509V477.67H256.879V480.86H255.379C251.17 480.86 248.73 482.55 248.73 491.2V504.3L248.23 504.75C240.59 511.57 230.65 515.32 220.25 515.32H220.23C196.87 515.32 177.87 496.39 177.87 473.35C177.87 450.31 196.87 431.57 220.23 431.57Z" fill="#E7DBD0"/>
<path d="M651.3 431.57C661.51 431.57 672.201 435 679.21 440.53L679.78 440.98V462.81H676.39V461.31C676.39 444.2 667.72 435.151 651.3 435.15C641.65 435.15 632.74 438.76 626.22 445.31C619.97 451.59 616.56 459.99 616.6 468.97C616.55 480.98 620.87 491.94 628.75 499.86C635.76 506.89 645.01 510.76 654.8 510.76C658.8 510.76 662.41 510.17 665.54 509.01C670.16 507.1 672.33 503.53 672.33 497.8V486.35C672.329 483.57 671.309 480.86 659.08 480.86H657.58V477.67H687.95V480.86H686.45C682.24 480.86 679.8 482.55 679.8 491.2V504.3L679.3 504.75C671.66 511.57 661.72 515.32 651.32 515.32H651.3C627.94 515.32 608.94 496.39 608.94 473.35C608.94 450.31 627.94 431.57 651.3 431.57Z" fill="#E7DBD0"/>
<path d="M282.85 436.31H281.35C277.14 436.31 274.7 438 274.7 446.65V500.23C274.7 508.88 277.14 510.57 281.35 510.57H282.85V513.76H259.081V510.57H260.581C264.79 510.57 267.23 508.88 267.23 500.23V446.65C267.23 438.001 264.79 436.31 260.581 436.31H259.081V433.12H282.85V436.31Z" fill="#E7DBD0"/>
<path d="M312.52 436.3H311.02C306.81 436.3 304.37 437.99 304.37 446.64V500.22C304.37 507.82 306.19 509.81 308.94 510.37H325.98C334.59 510.37 336.32 502.85 336.32 490.71V489.21H339.51V513.76H288.76V510.57H290.26L290.25 510.56C294.46 510.559 296.9 508.869 296.9 500.22V446.64C296.9 437.99 294.46 436.3 290.25 436.3H288.75V433.11H312.52V436.3Z" fill="#E7DBD0"/>
<path d="M485.81 436.31H484.31C480.1 436.31 477.66 438 477.66 446.65V500.23C477.66 508.88 480.1 510.57 484.31 510.57H485.81V513.76H462.04V510.57H463.54C467.749 510.57 470.19 508.88 470.19 500.23V483.15C470.19 481.8 470.19 480.28 465.19 480.28H441.12C436.12 480.28 436.12 481.81 436.12 483.15V486.74C436.12 496.28 438.31 497.08 440.35 497.08H441.85V500.27H422.93V497.08H424.43C426.57 497.08 428.66 496.279 428.66 486.74V462.57C428.66 453.031 426.57 452.231 424.43 452.23H422.93V449.04H441.85V452.23H440.35C438.3 452.23 436.12 453.03 436.12 462.57V474.02C436.12 475.37 436.12 476.89 441.12 476.89H465.19C470.19 476.89 470.19 475.36 470.19 474.02V446.65C470.19 438 467.75 436.31 463.54 436.31H462.04V433.12H485.81V436.31Z" fill="#E7DBD0"/>
<path fill-rule="evenodd" clip-rule="evenodd" d="M534.58 500.17C536.789 509.329 538.96 510.57 540.79 510.57H542.29V513.76H519.59V510.57H521.09V510.56C523.98 510.56 525.85 509.97 526.81 508.75C527.94 507.32 528.04 504.67 527.11 500.87L521.75 478.23H512.94C508.55 478.23 507.57 479.23 506.91 481.6L502.26 500.87C501.38 504.48 501.51 506.94 502.67 508.42C503.81 509.87 506.11 510.57 509.73 510.57H511.23V513.76H492.02V510.57H493.52C495.39 510.57 497.64 505.11 500.21 494.35L515.34 431.27H518.19L534.58 500.17ZM508.96 472.72C508.86 473.319 508.91 473.8 509.12 474.05C509.37 474.35 510.21 474.85 513.03 474.85H520.94L514.69 448.89L508.96 472.72Z" fill="#E7DBD0"/>
<path d="M372.9 474.84H343.791V471.26H372.9V474.84Z" fill="#E7DBD0"/>
<path fill-rule="evenodd" clip-rule="evenodd" d="M312.07 329.72H264.67V354.24H307.27V365.24H264.67V393.24H313.15V404.48H252.71V318.48H312.07V329.72ZM254.71 402.48H311.15V395.24H262.67V363.24H305.27V356.24H262.67V327.72H310.07V320.48H254.71V402.48Z" fill="#E7DBD0"/>
<path fill-rule="evenodd" clip-rule="evenodd" d="M332.339 393.24H376.14V404.48H320.26V318.48H332.339V393.24ZM322.26 402.48H374.14V395.24H330.339V320.48H322.26V402.48Z" fill="#E7DBD0"/>
<path fill-rule="evenodd" clip-rule="evenodd" d="M441.72 329.72H394.32V354.24H436.919V365.24H394.32V393.24H442.8V404.48H382.36V318.48H441.72V329.72ZM384.36 402.48H440.8V395.24H392.32V363.24H434.919V356.24H392.32V327.72H439.72V320.48H384.36V402.48Z" fill="#E7DBD0"/>
<path fill-rule="evenodd" clip-rule="evenodd" d="M506.549 384.17V318.48H518.629V404.48H507.03L462 339.25V404.48H449.919V318.48H461.52L506.549 384.17ZM451.929 402.48H460.009V332.83L508.089 402.48H516.64V320.48H508.56V390.62L460.48 320.48H451.929V402.48Z" fill="#E7DBD0"/>
<path fill-rule="evenodd" clip-rule="evenodd" d="M579.85 371.48H545.87L562.53 326.87L579.85 371.48ZM548.749 369.48H576.929L562.57 332.49L548.749 369.48Z" fill="#E7DBD0"/>
<path fill-rule="evenodd" clip-rule="evenodd" d="M603.14 404.48H590.54L581.18 380.48H544.64L535.76 404.48H523.17L556.46 318.48H568.86L603.14 404.48ZM526.09 402.48H534.37L543.249 378.48H582.55L591.91 402.48H600.19L567.51 320.48H557.83L526.09 402.48Z" fill="#E7DBD0"/>
<path d="M454.85 261.83C460.45 261.83 463.7 265.08 463.49 270.41H459.82C459.85 266.892 458.102 264.932 454.526 264.93C449.738 264.932 446.01 269.301 446.01 274.96C446.01 278.51 448 280.62 451.25 280.62C454.77 280.62 457.15 278.54 458.02 275.29H451.7L452.27 272.49H459.589C461.699 272.49 462.869 273.81 462.419 276.04L460.94 283.3H457.93L459.16 277.22H459.07C457.75 281.22 454.67 283.69 450.49 283.69C445.46 283.69 442.24 280.35 442.24 275.17C442.24 267.61 447.72 261.83 454.85 261.83Z" fill="#E7DBD0"/>
<path d="M391.22 265.32H384.32L380.65 283.29H377.01L380.68 265.32H373.78L374.39 262.22H391.82L391.22 265.32Z" fill="#E7DBD0"/>
<path d="M395.99 270.92H406.49L408.27 262.22H411.879L407.61 283.29H403.99L405.86 274.02H395.35L393.49 283.29H389.85L394.12 262.22H397.759L395.99 270.92Z" fill="#E7DBD0"/>
<path d="M415.54 283.29H411.89L416.169 262.22H419.81L415.54 283.29Z" fill="#E7DBD0"/>
<path d="M434.62 278.24L437.87 262.22H441.51L437.24 283.29H433.589L426.669 267.28L423.419 283.29H419.78L424.049 262.22H427.69L434.62 278.24Z" fill="#E7DBD0"/>
<path d="M351.57 260.62C352.21 260.62 352.74 261.11 352.79 261.75L352.88 262.92C353.19 266.99 356.42 270.22 360.49 270.53L361.66 270.62C362.3 270.67 362.789 271.2 362.79 271.84C362.79 272.48 362.3 273.01 361.66 273.06L360.5 273.15C356.43 273.461 353.2 276.7 352.89 280.77L352.8 281.93C352.75 282.57 352.22 283.06 351.58 283.06C350.94 283.059 350.41 282.57 350.36 281.93L350.27 280.77C349.96 276.7 346.73 273.47 342.66 273.16L342.65 273.15L341.49 273.06C340.85 273.009 340.36 272.48 340.36 271.84C340.36 271.2 340.85 270.67 341.49 270.62L342.65 270.53C346.72 270.22 349.95 266.99 350.26 262.92L350.35 261.75C350.4 261.11 350.93 260.62 351.57 260.62Z" fill="#E7DBD0"/>
<path d="M491.14 260.62C491.78 260.62 492.31 261.11 492.36 261.75L492.45 262.92C492.76 266.99 495.99 270.22 500.06 270.53L501.23 270.62C501.87 270.67 502.36 271.2 502.36 271.84C502.36 272.48 501.87 273.009 501.23 273.06L500.07 273.15C496 273.46 492.77 276.7 492.459 280.77L492.37 281.93C492.32 282.57 491.79 283.059 491.15 283.06C490.51 283.06 489.98 282.57 489.93 281.93L489.839 280.77C489.529 276.7 486.3 273.47 482.23 273.16L482.219 273.15L481.06 273.06C480.42 273.01 479.93 272.48 479.93 271.84C479.93 271.2 480.42 270.67 481.06 270.62L482.219 270.53C486.289 270.22 489.52 266.99 489.83 262.92L489.919 261.75C489.969 261.11 490.5 260.62 491.14 260.62Z" fill="#E7DBD0"/>
<path d="M515.07 247.57H515.06L515.065 247.569L515.07 247.57Z" fill="#E7DBD0"/>
<path d="M519.43 225.71C525.03 225.71 528.28 228.96 528.07 234.29H524.4C524.43 230.77 522.68 228.81 519.1 228.81C514.31 228.81 510.58 233.18 510.58 238.84C510.58 242.39 512.57 244.5 515.82 244.5C519.34 244.5 521.72 242.42 522.59 239.17H516.27L516.839 236.37H524.16C526.27 236.37 527.44 237.69 526.99 239.92L525.51 247.18H522.499L523.73 241.1H523.64C522.321 245.098 519.242 247.567 515.065 247.569C510.038 247.567 506.82 244.228 506.82 239.05C506.82 231.49 512.3 225.71 519.43 225.71Z" fill="#E7DBD0"/>
<path d="M326.64 229.2H319.75L316.08 247.17H312.43L316.11 229.2H309.21L309.81 226.1H327.25L326.64 229.2Z" fill="#E7DBD0"/>
<path d="M331.41 234.8H341.92L343.7 226.1H347.31L343.03 247.17H339.42L341.291 237.9H330.78L328.92 247.17H325.27L329.55 226.1H333.19L331.41 234.8Z" fill="#E7DBD0"/>
<path d="M365.839 229.2H354.58L353.43 234.8H363.58L362.98 237.81H352.8L351.54 244.07H363.07L362.459 247.17H347.32L351.6 226.1H366.47L365.839 229.2Z" fill="#E7DBD0"/>
<path fill-rule="evenodd" clip-rule="evenodd" d="M386.59 226.1C389.81 226.1 391.83 227.85 391.83 230.53C391.829 233.42 389.81 235.59 386.62 236.25L386.59 236.37C389 236.79 390.35 238.38 390.35 240.58C390.35 244.43 387.13 247.17 382.55 247.17H371.71L375.98 226.1H386.59ZM375.9 244.25H382.82C385.1 244.25 386.76 242.69 386.76 240.55C386.76 238.86 385.5 237.9 383.72 237.9H377.22L375.9 244.25ZM377.8 234.979H384.21C386.61 234.979 388.21 233.54 388.21 231.4C388.21 229.98 387.22 228.99 385.65 228.99H379L377.8 234.979Z" fill="#E7DBD0"/>
<path fill-rule="evenodd" clip-rule="evenodd" d="M407.36 226.1C410.52 226.1 412.54 228 412.54 230.95C412.539 234.32 410.16 236.82 406.4 237.51V237.63C408.12 237.96 408.96 238.89 409.23 240.4L410.46 247.17H406.73L405.68 240.85C405.5 239.76 405.11 239.22 403.51 239.22H397.49L395.89 247.17H392.25L396.52 226.1H407.36ZM398.09 236.25H404.35V236.26C407.09 236.26 408.84 234.06 408.84 231.74C408.84 230.11 407.85 229.18 406.04 229.18H399.54L398.09 236.25Z" fill="#E7DBD0"/>
<path fill-rule="evenodd" clip-rule="evenodd" d="M431.669 247.17H428.06L427.22 241.78H418.52L415.54 247.17H411.63L423.88 226.1H427.88L431.669 247.17ZM420.2 238.74H426.73L425.29 229.53L420.2 238.74Z" fill="#E7DBD0"/>
<path d="M448.39 242.12L451.64 226.1H455.29L451.01 247.17H447.37L440.44 231.16L437.19 247.17H433.55L437.82 226.1H441.47L448.39 242.12Z" fill="#E7DBD0"/>
<path fill-rule="evenodd" clip-rule="evenodd" d="M467.64 226.09C472.67 226.09 475.77 229.13 475.77 234.1C475.77 241.48 470.35 247.17 463.37 247.17H455.3V247.16L459.57 226.09H467.64ZM459.55 244.1H463.7C468.37 244.1 472.01 239.86 472.01 234.44C472.01 231.071 470.08 229.17 466.77 229.17H462.589L459.55 244.1Z" fill="#E7DBD0"/>
<path d="M480.11 247.17H476.47L480.74 226.1H484.379L480.11 247.17Z" fill="#E7DBD0"/>
<path d="M499.19 242.12L502.44 226.1H506.08L501.81 247.17H498.169L491.24 231.16L487.99 247.17H484.35L488.62 226.1H492.27L499.19 242.12Z" fill="#E7DBD0"/>
<path fill-rule="evenodd" clip-rule="evenodd" d="M404.14 189.59C409.56 189.59 412.99 192.93 412.99 198.05C412.99 205.61 407.49 211.45 400.26 211.45C394.84 211.45 391.53 208.11 391.53 202.93C391.53 195.37 397.01 189.59 404.14 189.59ZM403.81 192.68C399.02 192.68 395.29 197.05 395.29 202.71C395.29 206.2 397.25 208.34 400.62 208.34C405.47 208.34 409.2 203.92 409.2 198.26C409.2 194.8 407.21 192.691 403.81 192.69V192.68Z" fill="#E7DBD0"/>
<path d="M456.69 189.59C462.29 189.59 465.54 192.84 465.33 198.17H461.66C461.69 194.65 459.94 192.69 456.36 192.69C451.57 192.69 447.839 197.06 447.839 202.72C447.839 206.27 449.83 208.38 453.08 208.38C456.6 208.38 458.98 206.3 459.85 203.05H453.53L454.1 200.25H461.419C463.529 200.25 464.699 201.57 464.25 203.8L462.77 211.06H459.76L460.99 204.979H460.9C459.58 208.979 456.5 211.45 452.32 211.45C447.29 211.45 444.07 208.11 444.07 202.93H444.08C444.08 195.37 449.56 189.59 456.69 189.59Z" fill="#E7DBD0"/>
<path fill-rule="evenodd" clip-rule="evenodd" d="M381.8 189.98C386.83 189.981 389.93 193.02 389.93 197.99L389.926 198.324C389.761 205.536 384.401 211.05 377.53 211.05H369.46L373.73 189.98H381.8ZM373.71 207.98H377.86C382.53 207.98 386.17 203.74 386.17 198.32C386.17 194.95 384.24 193.05 380.93 193.05H376.75L373.71 207.98Z" fill="#E7DBD0"/>
<path d="M417.37 211.05H413.72L418 189.98H421.64L417.37 211.05Z" fill="#E7DBD0"/>
<path d="M436.45 206L439.7 189.98H443.34L439.07 211.05H435.419L428.5 195.04L425.25 211.05H421.61L425.88 189.98H429.52L436.45 206Z" fill="#E7DBD0"/>
<path fill-rule="evenodd" clip-rule="evenodd" d="M417.28 60.6396C420.59 60.6398 423.049 64.0101 424.669 70.7598L431.08 97.0801L437.629 77.1201C440.139 69.4903 442.959 65.6701 446.089 65.6699C447.589 65.6699 448.88 66.1905 449.94 67.2305C451 68.2703 451.53 69.4701 451.53 71.0498C451.53 72.6298 450.87 75.8901 449.56 80.8301L443.78 102.89C444.09 105.58 444.24 109.39 444.24 114.32L444.299 116.8C445.509 120.12 446.239 123.09 446.469 125.71C444.579 131.23 441.63 137.17 437.65 143.53V151.92C432.68 153.89 428.2 154.87 424.23 154.87C419.22 154.87 414.689 153.89 410.639 151.92V145.44C409.289 143.97 407.77 142.26 406.07 140.29C403.8 134.78 402.66 129 402.66 122.94V120.14C402.12 118.52 401.85 117.21 401.85 116.21C401.85 114.44 402.23 113.12 402.98 112.25C403.74 111.38 404.84 110.95 406.31 110.95C406.85 110.95 407.74 111.12 408.969 111.47C408.509 109.85 408.28 108.6 408.28 107.71C408.28 105.59 408.79 104.01 409.81 102.97C410.83 101.93 412.34 101.41 414.35 101.41C416.12 101.41 417.8 102.47 419.379 104.59C419.339 103.62 419.32 102.84 419.32 102.25C419.32 101.75 419.329 101.1 419.339 100.32L412.83 75.9697C411.52 71.1499 410.87 68.0599 410.87 66.71C410.87 64.67 411.41 63.1396 412.49 62.1396C413.56 61.1398 415.16 60.6396 417.28 60.6396ZM422.28 103.71C422.28 109.08 425.69 111.94 432.52 112.28C432.44 113.55 432.4 114.59 432.4 115.4C432.4 117.87 432.67 120.59 433.209 123.56H430.379C429.839 121.21 429.57 118.8 429.57 116.33V115.12C426.87 114.58 424.609 113.64 422.799 112.29L425.06 117.84C425.79 119.73 426.16 121.25 426.16 122.41C426.16 124.53 425.669 126.12 424.709 127.18C423.74 128.24 422.28 128.769 420.31 128.77C419.31 128.77 418.13 128.35 416.78 127.5C416.55 129.27 416.01 130.6 415.16 131.49C414.31 132.38 413.179 132.82 411.75 132.82C409.97 132.82 408.43 131.74 407.12 129.58L405.85 127.5C406.35 131.24 407.01 134.5 407.82 137.28C407.93 137.63 408.09 138.111 408.28 138.73L413.6 144.8V149.95C417.49 151.26 421.2 151.92 424.589 151.92C427.979 151.92 431.47 151.26 435.06 149.95V142.37C437.87 138.36 440.44 133.39 442.75 127.45V127.43C442.94 126.93 443.23 126.22 443.62 125.29C443.35 124.33 443.16 123.62 443.04 123.16C441.39 116.73 438.38 110.77 434.02 105.27L422.28 103.71ZM407.299 113.61C406.45 113.61 405.8 113.83 405.36 114.25V114.24C404.91 114.67 404.69 115.32 404.69 116.21C404.69 116.94 405.13 118.37 406.02 120.49L408.219 125.7C409.379 128.44 410.67 129.81 412.1 129.81C412.91 129.809 413.52 129.559 413.919 129.06C414.329 128.56 414.53 127.82 414.53 126.86C414.53 125.62 413.89 123.64 412.62 120.9L411.12 117.43C410.04 114.88 408.769 113.61 407.299 113.61ZM414.2 104.24C413.19 104.24 412.42 104.54 411.9 105.14H411.879C411.359 105.74 411.1 106.63 411.1 107.82C411.1 109.39 411.57 111.28 412.5 113.47L414.77 118.95C416.71 123.53 418.59 125.82 420.41 125.82C421.38 125.82 422.099 125.56 422.589 125.04C423.079 124.52 423.32 123.76 423.32 122.76C423.32 121.57 422.459 119.05 420.759 115.2L418.379 109.32C417.029 105.93 415.63 104.24 414.2 104.24ZM417.07 63.29C415.95 63.29 415.12 63.5803 414.56 64.1602C414 64.7401 413.719 65.5999 413.719 66.7598C413.719 67.4198 413.869 68.3205 414.179 69.4805C414.289 69.9404 414.449 70.5801 414.639 71.3896C414.899 72.5096 415.12 73.3399 415.27 73.8799L415.28 73.8398L422.419 100.8L435.41 102.68C437.84 105.41 439.81 108.26 441.31 111.22V102.1L446.969 79.8799C448.139 75.3699 448.719 72.3997 448.719 70.9697C448.719 70.1199 448.51 69.4998 448.08 69.0898C447.66 68.6799 447 68.4805 446.11 68.4805C445.02 68.4805 444.18 68.9698 443.58 69.9297C442.98 70.8997 442.029 73.3503 440.709 77.2803L433.219 99.2598L428.669 98.7998L421.86 70.9805C420.63 65.8607 419.03 63.2902 417.07 63.29Z" fill="#E7DBD0"/>
</svg>
